<?xml version="1.0" encoding="utf-8"?>
<!-- Generator: Adobe Illustrator 17.0.0, SVG Export Plug-In . SVG Version: 6.00 Build 0)  -->
<!DOCTYPE svg PUBLIC "-//W3C//DTD SVG 1.1//EN" "http://www.w3.org/Graphics/SVG/1.1/DTD/svg11.dtd">
<svg version="1.1" xmlns="http://www.w3.org/2000/svg" xmlns:xlink="http://www.w3.org/1999/xlink" x="0px" y="0px" width="800.5px"
	 height="64px" viewBox="-149.98 0 800.5 64" enable-background="new -149.98 0 800.5 64" xml:space="preserve">
<g id="svg2" xmlns:dc="http://purl.org/dc/elements/1.1/" xmlns:cc="http://creativecommons.org/ns#" xmlns:rdf="http://www.w3.org/1999/02/22-rdf-syntax-ns#" xmlns:svg="http://www.w3.org/2000/svg" xmlns:sodipodi="http://sodipodi.sourceforge.net/DTD/sodipodi-0.dtd" xmlns:inkscape="http://www.inkscape.org/namespaces/inkscape" sodipodi:docname="cc_byncnd.flat.guokr.svg" inkscape:version="0.48.2 r9819">
	
		<sodipodi:namedview  showguides="true" fit-margin-left="0" fit-margin-top="0" inkscape:cy="32" inkscape:cx="175.51968" inkscape:zoom="2.72619" showgrid="true" guidetolerance="10" gridtolerance="10" objecttolerance="10" borderopacity="1" pagecolor="#ffffff" bordercolor="#666666" id="namedview31" inkscape:snap-global="false" inkscape:guide-bbox="true" inkscape:snap-page="false" inkscape:snap-grids="true" fit-margin-bottom="0" fit-margin-right="0" inkscape:current-layer="svg2" inkscape:window-maximized="0" inkscape:window-y="367" inkscape:window-x="102" inkscape:window-height="746" inkscape:window-width="1088" inkscape:pageshadow="2" inkscape:pageopacity="0">
		<sodipodi:guide  position="24.952733,105.26934" orientation="1,0" id="guide3057"></sodipodi:guide>
		<sodipodi:guide  position="74.858199,102.93002" orientation="1,0" id="guide3059"></sodipodi:guide>
		<sodipodi:guide  position="-5.0685239,58.872855" orientation="0,1" id="guide3061"></sodipodi:guide>
		<sodipodi:guide  position="-22.613414,5.8482968" orientation="0,1" id="guide3063"></sodipodi:guide>
		<inkscape:grid  type="xygrid" enabled="true" empspacing="5" visible="true" id="grid3065" snapvisiblegridlinesonly="true">
			</inkscape:grid>
		<sodipodi:guide  position="124.98094,66.588207" orientation="1,0" id="guide3067"></sodipodi:guide>
		<sodipodi:guide  position="174.83673,100.39453" orientation="1,0" id="guide3069"></sodipodi:guide>
		<sodipodi:guide  position="200.1061,86.393931" orientation="1,0" id="guide3071"></sodipodi:guide>
		<sodipodi:guide  position="249.96189,84.345063" orientation="1,0" id="guide3073"></sodipodi:guide>
		<sodipodi:guide  position="274.88978,61.466038" orientation="1,0" id="guide3075"></sodipodi:guide>
		<sodipodi:guide  position="325.08704,51.563176" orientation="1,0" id="guide3077"></sodipodi:guide>
	</sodipodi:namedview>
	<path id="rect13" fill="#555555" d="M-144.983,0.006L88.382,0c7.368,0,13.07,2.358,13.07,5.267v53.466
		c0,2.909-5.702,5.267-12.735,5.267H-144.73c-5.466,0-5.27-2.358-5.27-5.267V5.267C-150,2.358-150.188,0-144.983,0.006z"/>
	<path id="rect3034" fill="#F37526" d="M107.727,0h536.517c3.466,0,6.276,2.81,6.276,6.276v51.449c0,3.466-2.81,6.276-6.276,6.276
		H107.727c-3.466,0-6.276-2.81-6.276-6.276V6.276C101.452,2.81,104.262,0,107.727,0z"/>
	<path id="path17" inkscape:connector-curvature="0" fill="#F37526" d="M92.22,0h35.688v64H92.22L92.22,0z"/>
	<g id="layer3" transform="matrix(0.78125,0,0,0.78125,125.1302,6.798057)" inkscape:label="Dessin">
		<path id="path1334" inkscape:connector-curvature="0" fill="#FFFFFF" d="M258.957,0c-17.283,0.438-31.187,14.612-31.187,32
			c0,17.664,14.336,32,32,32s32-14.336,32-32s-14.336-32-32-32C259.494,0,259.231-0.007,258.957,0z M258.926,5.5
			c0.284-0.009,0.558,0,0.844,0c14.628,0,26.5,11.872,26.5,26.5s-11.872,26.5-26.5,26.5c-14.628,0-26.5-11.872-26.5-26.5
			C233.27,17.658,244.692,5.951,258.926,5.5z"/>
	</g>
	<g id="g3001" transform="matrix(0.78998926,0,0,0.78890484,24.562303,6.561046)">
		<path id="path4" inkscape:connector-curvature="0" fill="#FFFFFF" d="M-157.919,0.311c-8.682,0-16.322,3.213-22.226,9.203
			c-6.078,6.164-9.377,14.152-9.377,22.486c0,8.422,3.212,16.236,9.29,22.313c6.078,6.078,13.978,9.377,22.313,9.377
			c8.334,0,16.409-3.299,22.66-9.463c5.904-5.817,9.029-13.544,9.029-22.227c0-8.595-3.125-16.408-9.116-22.399
			C-141.423,3.523-149.237,0.311-157.919,0.311z M-157.833,6.041c7.12,0,13.458,2.691,18.406,7.641
			c4.862,4.861,7.466,11.286,7.466,18.318c0,7.119-2.518,13.371-7.379,18.146c-5.123,5.035-11.721,7.727-18.493,7.727
			c-6.858,0-13.283-2.691-18.232-7.641c-4.949-4.949-7.727-11.46-7.727-18.232c0-6.858,2.778-13.369,7.727-18.406
			C-171.203,8.646-164.952,6.041-157.833,6.041z"/>
		<path id="c" inkscape:connector-curvature="0" fill="#FFFFFF" d="M-160.773,26.734c-1.79-3.264-4.844-4.563-8.389-4.563
			c-5.16,0-9.267,3.65-9.267,9.828c0,6.283,3.861,9.829,9.442,9.829c3.581,0,6.635-1.966,8.319-4.949l-3.931-2.001
			c-0.878,2.105-2.212,2.738-3.896,2.738c-2.914,0-4.248-2.422-4.248-5.617c0-3.193,1.124-5.616,4.248-5.616
			c0.842,0,2.527,0.456,3.51,2.563L-160.773,26.734z"/>
	</g>
	<g id="g3118" transform="matrix(0.78125,0,0,0.78125,200.38329,6.7410061)">
		<path id="path1334-2" inkscape:connector-curvature="0" fill="#FFFFFF" d="M-65.278,0c-17.283,0.438-31.188,14.612-31.188,32
			c0,17.664,14.336,32,32,32s32-14.336,32-32s-14.336-32-32-32C-64.741,0-65.004-0.007-65.278,0z M-65.309,5.5
			c0.284-0.009,0.558,0,0.844,0c14.628,0,26.5,11.872,26.5,26.5c0,14.628-11.872,26.5-26.5,26.5s-26.5-11.872-26.5-26.5
			C-90.965,17.658-79.542,5.951-65.309,5.5z"/>
		<path id="rect2247" sodipodi:nodetypes="ccccc" inkscape:connector-curvature="0" fill="#FFFFFF" d="M-35.824,28.453l-0.052,5.803
			l-56.072-0.25l0.052-5.803L-35.824,28.453z"/>
	</g>
	<g id="g3044" transform="matrix(0.78125,0,0,0.78125,274.79886,6.7898746)">
		<path id="path1334-3" inkscape:connector-curvature="0" fill="#FFFFFF" d="M287.505,0c-17.283,0.438-31.188,14.612-31.188,32
			c0,17.664,14.336,32,32,32s32-14.336,32-32s-14.336-32-32-32C288.042,0,287.78-0.007,287.505,0z M287.474,5.5
			c0.284-0.009,0.558,0,0.844,0c14.628,0,26.5,11.872,26.5,26.5s-11.872,26.5-26.5,26.5c-14.628,0-26.5-11.872-26.5-26.5
			C261.818,17.658,273.241,5.951,287.474,5.5z"/>
	</g>
	<g>
		<path fill="#FFFFFF" d="M192.25,20.486l1.326,0.335c-0.278,1.089-0.778,1.92-1.5,2.491c-0.723,0.572-1.605,0.858-2.649,0.858
			c-1.08,0-1.958-0.22-2.636-0.659c-0.676-0.44-1.191-1.077-1.545-1.911c-0.353-0.834-0.529-1.729-0.529-2.687
			c0-1.044,0.199-1.954,0.598-2.73c0.399-0.777,0.967-1.367,1.703-1.771c0.735-0.402,1.546-0.604,2.43-0.604
			c1.003,0,1.846,0.255,2.529,0.766s1.16,1.229,1.429,2.153l-1.306,0.308c-0.232-0.729-0.569-1.26-1.012-1.593
			s-0.998-0.499-1.668-0.499c-0.771,0-1.414,0.185-1.932,0.554c-0.517,0.369-0.88,0.865-1.09,1.486
			c-0.21,0.623-0.314,1.264-0.314,1.925c0,0.853,0.124,1.597,0.373,2.231c0.248,0.637,0.634,1.111,1.158,1.426
			s1.092,0.472,1.702,0.472c0.743,0,1.372-0.214,1.887-0.643S192.068,21.329,192.25,20.486z"/>
		<path fill="#FFFFFF" d="M194.595,20.37c0-1.345,0.374-2.34,1.121-2.987c0.624-0.538,1.386-0.807,2.283-0.807
			c0.998,0,1.813,0.327,2.447,0.98c0.634,0.654,0.95,1.558,0.95,2.711c0,0.935-0.14,1.669-0.421,2.205
			c-0.279,0.535-0.688,0.951-1.223,1.247c-0.536,0.296-1.12,0.444-1.754,0.444c-1.017,0-1.838-0.326-2.465-0.978
			C194.908,22.535,194.595,21.596,194.595,20.37z M195.86,20.37c0,0.93,0.203,1.626,0.608,2.089
			c0.405,0.462,0.916,0.693,1.531,0.693c0.61,0,1.119-0.232,1.524-0.697s0.608-1.174,0.608-2.126c0-0.897-0.204-1.578-0.611-2.04
			c-0.408-0.463-0.915-0.694-1.521-0.694c-0.615,0-1.126,0.23-1.531,0.69S195.86,19.44,195.86,20.37z"/>
		<path fill="#FFFFFF" d="M202.839,26.782V16.74h1.121v0.943c0.265-0.369,0.563-0.646,0.896-0.83
			c0.333-0.186,0.736-0.277,1.21-0.277c0.62,0,1.167,0.159,1.641,0.479s0.832,0.77,1.073,1.35c0.241,0.582,0.362,1.219,0.362,1.911
			c0,0.743-0.134,1.411-0.399,2.007c-0.268,0.594-0.654,1.05-1.162,1.367c-0.509,0.316-1.043,0.475-1.604,0.475
			c-0.41,0-0.778-0.087-1.104-0.26c-0.326-0.173-0.594-0.392-0.804-0.656v3.534H202.839z M203.953,20.411
			c0,0.935,0.189,1.625,0.567,2.071s0.836,0.67,1.374,0.67c0.547,0,1.016-0.231,1.404-0.693c0.391-0.463,0.585-1.18,0.585-2.15
			c0-0.925-0.19-1.618-0.571-2.078c-0.38-0.46-0.835-0.69-1.363-0.69c-0.524,0-0.988,0.245-1.391,0.735
			C204.154,18.765,203.953,19.477,203.953,20.411z"/>
		<path fill="#FFFFFF" d="M210.57,26.796l-0.137-1.155c0.269,0.073,0.504,0.109,0.704,0.109c0.273,0,0.492-0.046,0.656-0.137
			s0.299-0.219,0.403-0.383c0.077-0.123,0.203-0.429,0.376-0.916c0.022-0.068,0.06-0.169,0.109-0.301l-2.755-7.273h1.326
			l1.511,4.204c0.196,0.533,0.371,1.094,0.526,1.682c0.142-0.565,0.31-1.116,0.506-1.654l1.552-4.231h1.23l-2.762,7.383
			c-0.296,0.798-0.526,1.347-0.69,1.647c-0.219,0.405-0.47,0.703-0.752,0.892c-0.282,0.189-0.62,0.284-1.012,0.284
			C211.126,26.946,210.862,26.896,210.57,26.796z"/>
		<path fill="#FFFFFF" d="M217.782,24V13.979h3.452c0.779,0,1.374,0.048,1.784,0.144c0.574,0.132,1.064,0.371,1.47,0.718
			c0.528,0.446,0.924,1.018,1.187,1.713c0.262,0.694,0.393,1.488,0.393,2.382c0,0.761-0.089,1.436-0.267,2.023
			s-0.405,1.074-0.684,1.46c-0.278,0.385-0.582,0.688-0.913,0.908c-0.33,0.222-0.729,0.389-1.195,0.503
			c-0.468,0.114-1.004,0.171-1.61,0.171H217.782z M219.109,22.817h2.14c0.661,0,1.179-0.062,1.556-0.185
			c0.375-0.123,0.675-0.296,0.898-0.52c0.314-0.314,0.56-0.737,0.734-1.268c0.176-0.531,0.264-1.175,0.264-1.932
			c0-1.048-0.172-1.854-0.516-2.416c-0.345-0.563-0.763-0.94-1.255-1.132c-0.355-0.137-0.928-0.205-1.716-0.205h-2.105V22.817z"/>
		<path fill="#FFFFFF" d="M232.705,21.662l1.271,0.157c-0.2,0.743-0.572,1.319-1.114,1.729s-1.235,0.615-2.078,0.615
			c-1.062,0-1.903-0.327-2.526-0.98c-0.621-0.654-0.933-1.571-0.933-2.752c0-1.222,0.314-2.169,0.943-2.844s1.444-1.012,2.447-1.012
			c0.971,0,1.764,0.33,2.379,0.991s0.923,1.591,0.923,2.789c0,0.073-0.002,0.183-0.007,0.328h-5.414
			c0.046,0.798,0.271,1.408,0.677,1.832s0.911,0.636,1.518,0.636c0.451,0,0.836-0.118,1.155-0.355S232.519,22.182,232.705,21.662z
			 M228.665,19.673h4.054c-0.055-0.61-0.21-1.068-0.465-1.374c-0.392-0.474-0.9-0.711-1.524-0.711c-0.565,0-1.04,0.189-1.425,0.567
			C228.919,18.533,228.706,19.039,228.665,19.673z"/>
		<path fill="#FFFFFF" d="M235.494,24V13.979h1.23V24H235.494z"/>
		<path fill="#FFFFFF" d="M243.369,23.104c-0.456,0.388-0.895,0.661-1.316,0.82c-0.421,0.159-0.873,0.239-1.356,0.239
			c-0.798,0-1.41-0.195-1.839-0.584c-0.429-0.391-0.643-0.888-0.643-1.494c0-0.355,0.081-0.68,0.242-0.975
			c0.162-0.293,0.374-0.529,0.637-0.707c0.262-0.178,0.557-0.313,0.885-0.403c0.241-0.063,0.606-0.125,1.094-0.185
			c0.993-0.118,1.725-0.26,2.194-0.424c0.005-0.169,0.007-0.275,0.007-0.321c0-0.501-0.116-0.854-0.349-1.06
			c-0.314-0.278-0.781-0.417-1.401-0.417c-0.579,0-1.006,0.102-1.281,0.304c-0.276,0.203-0.48,0.563-0.612,1.077l-1.203-0.164
			c0.109-0.515,0.289-0.931,0.54-1.247c0.251-0.317,0.613-0.561,1.087-0.732c0.474-0.17,1.023-0.256,1.647-0.256
			c0.62,0,1.123,0.073,1.511,0.219s0.672,0.329,0.854,0.551c0.183,0.221,0.31,0.5,0.383,0.837c0.041,0.21,0.062,0.588,0.062,1.135
			v1.641c0,1.144,0.026,1.867,0.079,2.171c0.052,0.303,0.155,0.593,0.311,0.871h-1.285
			C243.487,23.745,243.405,23.446,243.369,23.104z M243.267,20.356c-0.446,0.183-1.116,0.337-2.01,0.465
			c-0.506,0.073-0.863,0.155-1.073,0.246s-0.371,0.225-0.485,0.399c-0.114,0.176-0.171,0.371-0.171,0.585
			c0,0.328,0.124,0.602,0.373,0.82c0.248,0.219,0.611,0.328,1.09,0.328c0.474,0,0.896-0.104,1.265-0.312
			c0.369-0.207,0.641-0.49,0.813-0.851c0.132-0.278,0.198-0.688,0.198-1.23V20.356z"/>
		<path fill="#FFFFFF" d="M246.363,26.796l-0.137-1.155c0.269,0.073,0.504,0.109,0.704,0.109c0.273,0,0.492-0.046,0.656-0.137
			s0.299-0.219,0.403-0.383c0.077-0.123,0.203-0.429,0.376-0.916c0.022-0.068,0.06-0.169,0.109-0.301l-2.755-7.273h1.326
			l1.511,4.204c0.196,0.533,0.371,1.094,0.526,1.682c0.142-0.565,0.31-1.116,0.506-1.654l1.552-4.231h1.23l-2.762,7.383
			c-0.296,0.798-0.526,1.347-0.69,1.647c-0.219,0.405-0.47,0.703-0.752,0.892c-0.282,0.189-0.62,0.284-1.012,0.284
			C246.919,26.946,246.655,26.896,246.363,26.796z"/>
		<path fill="#FFFFFF" d="M362.486,24V13.979h3.452c0.779,0,1.374,0.048,1.784,0.144c0.574,0.132,1.064,0.371,1.47,0.718
			c0.528,0.446,0.924,1.018,1.187,1.713c0.262,0.694,0.393,1.488,0.393,2.382c0,0.761-0.089,1.436-0.267,2.023
			s-0.405,1.074-0.684,1.46c-0.278,0.385-0.582,0.688-0.913,0.908c-0.33,0.222-0.729,0.389-1.195,0.503
			c-0.468,0.114-1.004,0.171-1.61,0.171H362.486z M363.812,22.817h2.14c0.661,0,1.179-0.062,1.556-0.185
			c0.375-0.123,0.675-0.296,0.898-0.52c0.314-0.314,0.56-0.737,0.734-1.268c0.176-0.531,0.264-1.175,0.264-1.932
			c0-1.048-0.172-1.854-0.516-2.416c-0.345-0.563-0.763-0.94-1.255-1.132c-0.355-0.137-0.928-0.205-1.716-0.205h-2.105V22.817z"/>
		<path fill="#FFFFFF" d="M377.408,21.662l1.271,0.157c-0.2,0.743-0.572,1.319-1.114,1.729s-1.235,0.615-2.078,0.615
			c-1.062,0-1.903-0.327-2.526-0.98c-0.621-0.654-0.933-1.571-0.933-2.752c0-1.222,0.314-2.169,0.943-2.844s1.444-1.012,2.447-1.012
			c0.971,0,1.764,0.33,2.379,0.991s0.923,1.591,0.923,2.789c0,0.073-0.002,0.183-0.007,0.328H373.3
			c0.046,0.798,0.271,1.408,0.677,1.832s0.911,0.636,1.518,0.636c0.451,0,0.836-0.118,1.155-0.355S377.222,22.182,377.408,21.662z
			 M373.368,19.673h4.054c-0.055-0.61-0.21-1.068-0.465-1.374c-0.392-0.474-0.9-0.711-1.524-0.711c-0.565,0-1.04,0.189-1.425,0.567
			C373.622,18.533,373.409,19.039,373.368,19.673z"/>
		<path fill="#FFFFFF" d="M380.197,24V13.979h1.23V24H380.197z"/>
		<path fill="#FFFFFF" d="M388.072,23.104c-0.456,0.388-0.895,0.661-1.316,0.82c-0.421,0.159-0.873,0.239-1.356,0.239
			c-0.798,0-1.41-0.195-1.839-0.584c-0.429-0.391-0.643-0.888-0.643-1.494c0-0.355,0.081-0.68,0.242-0.975
			c0.162-0.293,0.374-0.529,0.637-0.707c0.262-0.178,0.557-0.313,0.885-0.403c0.241-0.063,0.606-0.125,1.094-0.185
			c0.993-0.118,1.725-0.26,2.194-0.424c0.005-0.169,0.007-0.275,0.007-0.321c0-0.501-0.116-0.854-0.349-1.06
			c-0.314-0.278-0.781-0.417-1.401-0.417c-0.579,0-1.006,0.102-1.281,0.304c-0.276,0.203-0.48,0.563-0.612,1.077l-1.203-0.164
			c0.109-0.515,0.289-0.931,0.54-1.247c0.251-0.317,0.613-0.561,1.087-0.732c0.474-0.17,1.023-0.256,1.647-0.256
			c0.62,0,1.123,0.073,1.511,0.219s0.672,0.329,0.854,0.551c0.183,0.221,0.31,0.5,0.383,0.837c0.041,0.21,0.062,0.588,0.062,1.135
			v1.641c0,1.144,0.026,1.867,0.079,2.171c0.052,0.303,0.155,0.593,0.311,0.871h-1.285
			C388.191,23.745,388.109,23.446,388.072,23.104z M387.97,20.356c-0.446,0.183-1.116,0.337-2.01,0.465
			c-0.506,0.073-0.863,0.155-1.073,0.246s-0.371,0.225-0.485,0.399c-0.114,0.176-0.171,0.371-0.171,0.585
			c0,0.328,0.124,0.602,0.373,0.82c0.248,0.219,0.611,0.328,1.09,0.328c0.474,0,0.896-0.104,1.265-0.312
			c0.369-0.207,0.641-0.49,0.813-0.851c0.132-0.278,0.198-0.688,0.198-1.23V20.356z"/>
		<path fill="#FFFFFF" d="M391.067,26.796l-0.137-1.155c0.269,0.073,0.504,0.109,0.704,0.109c0.273,0,0.492-0.046,0.656-0.137
			s0.299-0.219,0.403-0.383c0.077-0.123,0.203-0.429,0.376-0.916c0.022-0.068,0.06-0.169,0.109-0.301l-2.755-7.273h1.326
			l1.511,4.204c0.196,0.533,0.371,1.094,0.526,1.682c0.142-0.565,0.31-1.116,0.506-1.654l1.552-4.231h1.23l-2.762,7.383
			c-0.296,0.798-0.526,1.347-0.69,1.647c-0.219,0.405-0.47,0.703-0.752,0.892c-0.282,0.189-0.62,0.284-1.012,0.284
			C391.622,26.946,391.359,26.896,391.067,26.796z"/>
		<path fill="#FFFFFF" d="M408.136,22.817V24h-6.624c-0.009-0.296,0.039-0.581,0.144-0.854c0.169-0.451,0.438-0.896,0.81-1.333
			c0.372-0.438,0.908-0.943,1.61-1.518c1.089-0.894,1.825-1.601,2.208-2.123c0.383-0.521,0.574-1.015,0.574-1.479
			c0-0.487-0.174-0.899-0.523-1.233c-0.348-0.336-0.803-0.503-1.363-0.503c-0.593,0-1.066,0.178-1.422,0.533
			s-0.535,0.848-0.54,1.477l-1.265-0.13c0.087-0.943,0.412-1.662,0.978-2.156c0.565-0.495,1.324-0.742,2.276-0.742
			c0.962,0,1.723,0.267,2.283,0.8s0.841,1.194,0.841,1.982c0,0.401-0.082,0.795-0.246,1.183s-0.437,0.795-0.817,1.224
			c-0.38,0.429-1.013,1.017-1.896,1.764c-0.738,0.62-1.212,1.04-1.422,1.261c-0.21,0.222-0.383,0.443-0.52,0.667H408.136z"/>
		<path fill="#FFFFFF" d="M413.4,24v-2.399h-4.348v-1.128l4.573-6.494h1.005v6.494h1.354v1.128h-1.354V24H413.4z M413.4,20.473
			v-4.519l-3.138,4.519H413.4z"/>
		<path fill="#FFFFFF" d="M421.671,24V13.979h1.326v4.115h5.209v-4.115h1.326V24h-1.326v-4.724h-5.209V24H421.671z"/>
		<path fill="#FFFFFF" d="M431.125,20.37c0-1.345,0.374-2.34,1.121-2.987c0.624-0.538,1.386-0.807,2.283-0.807
			c0.998,0,1.813,0.327,2.447,0.98c0.634,0.654,0.95,1.558,0.95,2.711c0,0.935-0.14,1.669-0.421,2.205
			c-0.279,0.535-0.688,0.951-1.223,1.247c-0.536,0.296-1.12,0.444-1.754,0.444c-1.017,0-1.838-0.326-2.465-0.978
			C431.439,22.535,431.125,21.596,431.125,20.37z M432.39,20.37c0,0.93,0.203,1.626,0.608,2.089
			c0.405,0.462,0.916,0.693,1.531,0.693c0.61,0,1.119-0.232,1.524-0.697s0.608-1.174,0.608-2.126c0-0.897-0.204-1.578-0.611-2.04
			c-0.408-0.463-0.915-0.694-1.521-0.694c-0.615,0-1.126,0.23-1.531,0.69S432.39,19.44,432.39,20.37z"/>
		<path fill="#FFFFFF" d="M444.127,24v-1.066c-0.565,0.82-1.333,1.23-2.304,1.23c-0.429,0-0.828-0.082-1.199-0.246
			c-0.372-0.164-0.647-0.37-0.828-0.619c-0.18-0.248-0.306-0.552-0.379-0.912c-0.05-0.241-0.075-0.624-0.075-1.148V16.74h1.23v4.026
			c0,0.643,0.025,1.075,0.075,1.299c0.077,0.323,0.241,0.577,0.492,0.763c0.251,0.184,0.561,0.276,0.93,0.276
			s0.716-0.095,1.039-0.284c0.323-0.188,0.553-0.446,0.688-0.771c0.134-0.326,0.201-0.799,0.201-1.419v-3.89h1.23V24H444.127z"/>
		<path fill="#FFFFFF" d="M447.142,24v-7.26h1.107v1.101c0.282-0.515,0.544-0.854,0.782-1.019c0.24-0.164,0.503-0.246,0.79-0.246
			c0.415,0,0.836,0.132,1.265,0.396l-0.424,1.142c-0.301-0.178-0.602-0.267-0.902-0.267c-0.269,0-0.511,0.081-0.725,0.242
			c-0.214,0.162-0.367,0.387-0.458,0.674c-0.137,0.438-0.205,0.916-0.205,1.436V24H447.142z"/>
		<path fill="#FFFFFF" d="M451.325,21.833l1.217-0.191c0.068,0.487,0.259,0.861,0.571,1.121c0.312,0.26,0.748,0.39,1.309,0.39
			c0.565,0,0.984-0.115,1.258-0.346c0.273-0.229,0.41-0.5,0.41-0.81c0-0.278-0.121-0.497-0.362-0.656
			c-0.169-0.109-0.588-0.248-1.258-0.417c-0.902-0.228-1.528-0.425-1.876-0.592c-0.35-0.166-0.613-0.396-0.793-0.689
			c-0.181-0.295-0.271-0.619-0.271-0.975c0-0.323,0.074-0.623,0.222-0.898c0.148-0.276,0.351-0.505,0.605-0.688
			c0.191-0.142,0.452-0.261,0.783-0.359c0.33-0.098,0.685-0.146,1.063-0.146c0.569,0,1.07,0.082,1.5,0.246
			c0.432,0.164,0.749,0.387,0.954,0.666c0.205,0.281,0.347,0.655,0.424,1.125l-1.203,0.164c-0.055-0.374-0.213-0.665-0.476-0.875
			c-0.262-0.21-0.632-0.314-1.11-0.314c-0.565,0-0.969,0.094-1.21,0.28s-0.362,0.405-0.362,0.656c0,0.159,0.05,0.303,0.15,0.431
			c0.101,0.132,0.258,0.241,0.472,0.328c0.123,0.046,0.485,0.15,1.087,0.314c0.87,0.232,1.478,0.423,1.821,0.57
			c0.345,0.148,0.614,0.364,0.811,0.646s0.294,0.634,0.294,1.053c0,0.41-0.12,0.797-0.358,1.158
			c-0.24,0.363-0.585,0.643-1.036,0.842c-0.451,0.197-0.962,0.297-1.531,0.297c-0.943,0-1.662-0.196-2.157-0.588
			C451.777,23.185,451.462,22.604,451.325,21.833z"/>
		<path fill="#FFFFFF" d="M536.364,19.119c0-1.663,0.446-2.966,1.34-3.906c0.894-0.941,2.046-1.412,3.459-1.412
			c0.925,0,1.759,0.221,2.502,0.663s1.31,1.059,1.698,1.849c0.391,0.791,0.585,1.688,0.585,2.69c0,1.017-0.205,1.926-0.615,2.728
			s-0.991,1.409-1.743,1.822c-0.752,0.412-1.563,0.618-2.434,0.618c-0.943,0-1.786-0.228-2.529-0.684s-1.306-1.078-1.688-1.866
			S536.364,19.999,536.364,19.119z M537.732,19.14c0,1.208,0.325,2.159,0.974,2.854c0.65,0.694,1.465,1.042,2.444,1.042
			c0.998,0,1.819-0.351,2.464-1.053c0.646-0.702,0.968-1.697,0.968-2.987c0-0.815-0.138-1.527-0.413-2.137
			c-0.276-0.607-0.68-1.08-1.211-1.414c-0.53-0.336-1.126-0.503-1.787-0.503c-0.938,0-1.746,0.322-2.424,0.968
			C538.07,16.555,537.732,17.631,537.732,19.14z"/>
		<path fill="#FFFFFF" d="M547.5,26.782V16.74h1.121v0.943c0.265-0.369,0.563-0.646,0.896-0.83c0.333-0.186,0.736-0.277,1.21-0.277
			c0.62,0,1.167,0.159,1.641,0.479s0.832,0.77,1.073,1.35c0.241,0.582,0.362,1.219,0.362,1.911c0,0.743-0.134,1.411-0.399,2.007
			c-0.268,0.594-0.654,1.05-1.162,1.367c-0.509,0.316-1.043,0.475-1.604,0.475c-0.41,0-0.778-0.087-1.104-0.26
			c-0.326-0.173-0.594-0.392-0.804-0.656v3.534H547.5z M548.614,20.411c0,0.935,0.189,1.625,0.567,2.071s0.836,0.67,1.374,0.67
			c0.547,0,1.016-0.231,1.404-0.693c0.391-0.463,0.585-1.18,0.585-2.15c0-0.925-0.19-1.618-0.571-2.078
			c-0.38-0.46-0.835-0.69-1.363-0.69c-0.524,0-0.988,0.245-1.391,0.735C548.816,18.765,548.614,19.477,548.614,20.411z"/>
		<path fill="#FFFFFF" d="M560.256,21.662l1.271,0.157c-0.2,0.743-0.572,1.319-1.114,1.729s-1.235,0.615-2.078,0.615
			c-1.062,0-1.903-0.327-2.526-0.98c-0.621-0.654-0.933-1.571-0.933-2.752c0-1.222,0.314-2.169,0.943-2.844s1.444-1.012,2.447-1.012
			c0.971,0,1.764,0.33,2.379,0.991s0.923,1.591,0.923,2.789c0,0.073-0.002,0.183-0.007,0.328h-5.414
			c0.046,0.798,0.271,1.408,0.677,1.832s0.911,0.636,1.518,0.636c0.451,0,0.836-0.118,1.155-0.355S560.07,22.182,560.256,21.662z
			 M556.216,19.673h4.054c-0.055-0.61-0.21-1.068-0.465-1.374c-0.392-0.474-0.9-0.711-1.524-0.711c-0.565,0-1.04,0.189-1.425,0.567
			C556.47,18.533,556.257,19.039,556.216,19.673z"/>
		<path fill="#FFFFFF" d="M563.072,24v-7.26h1.107v1.032c0.533-0.798,1.304-1.196,2.311-1.196c0.438,0,0.84,0.078,1.206,0.236
			c0.367,0.156,0.642,0.363,0.824,0.618s0.31,0.559,0.383,0.909c0.046,0.228,0.068,0.627,0.068,1.196V24h-1.23v-4.416
			c0-0.501-0.048-0.876-0.144-1.125c-0.096-0.248-0.266-0.446-0.509-0.594c-0.244-0.148-0.53-0.223-0.858-0.223
			c-0.524,0-0.977,0.166-1.356,0.499c-0.381,0.333-0.571,0.964-0.571,1.894V24H563.072z"/>
		<path fill="#FFFFFF" d="M575.042,24v-6.303h-1.087V16.74h1.087v-0.772c0-0.487,0.043-0.85,0.13-1.087
			c0.118-0.319,0.327-0.578,0.626-0.775c0.298-0.199,0.716-0.298,1.254-0.298c0.347,0,0.729,0.041,1.148,0.123l-0.185,1.073
			c-0.255-0.046-0.497-0.068-0.725-0.068c-0.374,0-0.638,0.08-0.793,0.239s-0.232,0.458-0.232,0.896v0.67h1.415v0.957h-1.415V24
			H575.042z"/>
		<path fill="#FFFFFF" d="M578.18,20.37c0-1.345,0.374-2.34,1.121-2.987c0.624-0.538,1.386-0.807,2.283-0.807
			c0.998,0,1.813,0.327,2.447,0.98c0.634,0.654,0.95,1.558,0.95,2.711c0,0.935-0.14,1.669-0.421,2.205
			c-0.279,0.535-0.688,0.951-1.223,1.247c-0.536,0.296-1.12,0.444-1.754,0.444c-1.017,0-1.838-0.326-2.465-0.978
			C578.493,22.535,578.18,21.596,578.18,20.37z M579.445,20.37c0,0.93,0.203,1.626,0.608,2.089c0.405,0.462,0.916,0.693,1.531,0.693
			c0.61,0,1.119-0.232,1.524-0.697s0.608-1.174,0.608-2.126c0-0.897-0.204-1.578-0.611-2.04c-0.408-0.463-0.915-0.694-1.521-0.694
			c-0.615,0-1.126,0.23-1.531,0.69S579.445,19.44,579.445,20.37z"/>
		<path fill="#FFFFFF" d="M586.41,24v-7.26h1.107v1.101c0.282-0.515,0.544-0.854,0.782-1.019c0.24-0.164,0.503-0.246,0.79-0.246
			c0.415,0,0.836,0.132,1.265,0.396l-0.424,1.142c-0.301-0.178-0.602-0.267-0.902-0.267c-0.269,0-0.511,0.081-0.725,0.242
			c-0.214,0.162-0.367,0.387-0.458,0.674c-0.137,0.438-0.205,0.916-0.205,1.436V24H586.41z"/>
		<path fill="#FFFFFF" d="M595.133,24V13.979h3.452c0.779,0,1.374,0.048,1.784,0.144c0.574,0.132,1.064,0.371,1.47,0.718
			c0.528,0.446,0.924,1.018,1.187,1.713c0.262,0.694,0.393,1.488,0.393,2.382c0,0.761-0.089,1.436-0.267,2.023
			s-0.405,1.074-0.684,1.46c-0.278,0.385-0.582,0.688-0.913,0.908c-0.33,0.222-0.729,0.389-1.195,0.503
			c-0.468,0.114-1.004,0.171-1.61,0.171H595.133z M596.459,22.817h2.14c0.661,0,1.179-0.062,1.556-0.185
			c0.375-0.123,0.675-0.296,0.898-0.52c0.314-0.314,0.56-0.737,0.734-1.268c0.176-0.531,0.264-1.175,0.264-1.932
			c0-1.048-0.172-1.854-0.516-2.416c-0.345-0.563-0.763-0.94-1.255-1.132c-0.355-0.137-0.928-0.205-1.716-0.205h-2.105V22.817z"/>
		<path fill="#FFFFFF" d="M610.056,21.662l1.271,0.157c-0.2,0.743-0.572,1.319-1.114,1.729s-1.235,0.615-2.078,0.615
			c-1.062,0-1.903-0.327-2.526-0.98c-0.621-0.654-0.933-1.571-0.933-2.752c0-1.222,0.314-2.169,0.943-2.844s1.444-1.012,2.447-1.012
			c0.971,0,1.764,0.33,2.379,0.991s0.923,1.591,0.923,2.789c0,0.073-0.002,0.183-0.007,0.328h-5.414
			c0.046,0.798,0.271,1.408,0.677,1.832s0.911,0.636,1.518,0.636c0.451,0,0.836-0.118,1.155-0.355S609.869,22.182,610.056,21.662z
			 M606.016,19.673h4.054c-0.055-0.61-0.21-1.068-0.465-1.374c-0.392-0.474-0.9-0.711-1.524-0.711c-0.565,0-1.04,0.189-1.425,0.567
			C606.27,18.533,606.057,19.039,606.016,19.673z"/>
		<path fill="#FFFFFF" d="M614.007,24h-1.142V13.979h1.23v3.575c0.52-0.651,1.183-0.978,1.989-0.978c0.446,0,0.869,0.09,1.269,0.27
			c0.398,0.181,0.727,0.434,0.984,0.76c0.257,0.325,0.459,0.719,0.604,1.179s0.219,0.952,0.219,1.477
			c0,1.244-0.308,2.206-0.923,2.885s-1.354,1.019-2.215,1.019c-0.856,0-1.529-0.357-2.017-1.073V24z M613.993,20.315
			c0,0.87,0.118,1.499,0.355,1.887c0.388,0.634,0.911,0.95,1.572,0.95c0.538,0,1.003-0.233,1.395-0.701
			c0.392-0.467,0.588-1.163,0.588-2.088c0-0.948-0.188-1.647-0.563-2.099c-0.377-0.451-0.831-0.677-1.364-0.677
			c-0.538,0-1.003,0.233-1.395,0.701C614.19,18.756,613.993,19.432,613.993,20.315z"/>
		<path fill="#FFFFFF" d="M625.416,24v-1.066c-0.565,0.82-1.333,1.23-2.304,1.23c-0.429,0-0.828-0.082-1.199-0.246
			c-0.372-0.164-0.647-0.37-0.828-0.619c-0.18-0.248-0.306-0.552-0.379-0.912c-0.05-0.241-0.075-0.624-0.075-1.148V16.74h1.23v4.026
			c0,0.643,0.025,1.075,0.075,1.299c0.077,0.323,0.241,0.577,0.492,0.763c0.251,0.184,0.561,0.276,0.93,0.276
			s0.716-0.095,1.039-0.284c0.323-0.188,0.553-0.446,0.688-0.771c0.134-0.326,0.201-0.799,0.201-1.419v-3.89h1.23V24H625.416z"/>
		<path fill="#FFFFFF" d="M628.219,24.602l1.196,0.178c0.05,0.369,0.189,0.638,0.417,0.807c0.306,0.228,0.723,0.342,1.251,0.342
			c0.569,0,1.01-0.114,1.319-0.342s0.52-0.547,0.629-0.957c0.063-0.251,0.094-0.777,0.089-1.579c-0.538,0.634-1.208,0.95-2.01,0.95
			c-0.998,0-1.771-0.36-2.317-1.08s-0.82-1.584-0.82-2.591c0-0.692,0.125-1.332,0.376-1.917c0.251-0.586,0.614-1.038,1.091-1.357
			c0.476-0.319,1.035-0.479,1.678-0.479c0.856,0,1.563,0.347,2.119,1.039V16.74h1.135v6.275c0,1.13-0.115,1.932-0.346,2.402
			c-0.229,0.473-0.594,0.845-1.094,1.118c-0.498,0.273-1.112,0.41-1.842,0.41c-0.866,0-1.565-0.194-2.099-0.585
			C628.458,25.973,628.2,25.386,628.219,24.602z M629.237,20.24c0,0.952,0.189,1.647,0.567,2.085s0.853,0.656,1.422,0.656
			c0.565,0,1.039-0.218,1.422-0.653c0.383-0.435,0.574-1.117,0.574-2.047c0-0.889-0.197-1.559-0.592-2.01
			c-0.394-0.451-0.869-0.677-1.425-0.677c-0.547,0-1.012,0.222-1.395,0.667C629.429,18.705,629.237,19.365,629.237,20.24z"/>
		<path fill="#FFFFFF" d="M190.035,38.541l-1.375,1.547c-0.459,0.516-1.146,1.175-2.063,1.977c-0.401-0.344-0.889-0.716-1.461-1.117
			c1.088-0.572,2.033-1.303,2.836-2.191c0.802-0.888,1.346-1.618,1.633-2.191h-0.773c-0.917,0-1.891,0.029-2.922,0.086v-1.461
			c1.031,0.058,2.005,0.086,2.922,0.086h1.203c0-1.088-0.029-2.005-0.086-2.75h1.719c-0.058,0.745-0.086,1.662-0.086,2.75
			c1.031,0,2.033-0.028,3.008-0.086v1.461c-0.975-0.057-1.977-0.086-3.008-0.086v3.953c0,0.459,0.028,0.945,0.086,1.461h-1.719
			c0.057-0.286,0.086-0.773,0.086-1.461V38.541z M187.801,49.498c0.859-0.486,1.805-1.16,2.836-2.02
			c0.286,0.401,0.658,0.889,1.117,1.461c-0.631,0.344-1.318,0.745-2.063,1.203c-0.745,0.458-1.776,1.088-3.094,1.891
			c-0.287-0.516-0.631-1.003-1.031-1.461C186.196,50.344,186.942,49.985,187.801,49.498z M201.981,45.502
			c0.63,0,1.289-0.028,1.977-0.086v1.461c-0.688-0.057-1.347-0.086-1.977-0.086h-5.844v3.781c0,0.859-0.358,1.403-1.074,1.633
			c-0.717,0.229-1.504,0.372-2.363,0.43c-0.172-0.631-0.401-1.232-0.688-1.805c1.203,0.057,1.919,0.043,2.148-0.043
			c0.229-0.086,0.344-0.387,0.344-0.902v-3.094h-6.789c-0.516,0-1.061,0.058-1.633,0.172v-1.547
			c0.572,0.058,1.117,0.086,1.633,0.086H201.981z M199.746,42.58c0.516,0,1.203-0.028,2.063-0.086v1.461
			c-0.975-0.057-1.662-0.086-2.063-0.086h-9.453c-0.401,0-1.031,0.029-1.891,0.086v-1.461c0.688,0.058,1.317,0.086,1.891,0.086
			H199.746z M194.762,39.057c-0.287,0.344-0.659,0.717-1.117,1.117c-0.631-0.744-1.261-1.375-1.891-1.891
			c0.4-0.4,0.688-0.773,0.859-1.117C193.358,37.797,194.074,38.427,194.762,39.057z M198.371,35.361
			c0-1.203-0.029-2.091-0.086-2.664h1.719c-0.058,0.688-0.086,1.576-0.086,2.664h1.719c0.802,0,1.633-0.028,2.492-0.086v1.461
			c-0.803-0.057-1.604-0.086-2.406-0.086h-1.203c1.375,1.776,2.864,3.065,4.469,3.867c-0.688,0.459-1.146,0.889-1.375,1.289
			c-0.803-0.63-1.547-1.317-2.234-2.063c-0.688-0.744-1.175-1.289-1.461-1.633v2.063c0,0.459,0.028,1.089,0.086,1.891h-1.719
			c0.057-0.63,0.086-1.203,0.086-1.719v-2.148c-0.459,0.631-0.874,1.175-1.246,1.633c-0.373,0.459-1.189,1.203-2.449,2.234
			c-0.344-0.4-0.803-0.744-1.375-1.031c1.146-0.688,2.076-1.432,2.793-2.234c0.716-0.802,1.217-1.518,1.504-2.148h-0.859
			c-0.459,0-0.975,0.029-1.547,0.086v-1.461c0.572,0.058,1.26,0.086,2.063,0.086H198.371z M201.293,48.682
			c0.802,0.401,1.747,0.975,2.836,1.719c-0.459,0.516-0.803,1.002-1.031,1.461c-0.975-0.803-2.607-1.775-4.898-2.922
			c0.4-0.516,0.716-0.974,0.945-1.375C199.775,47.908,200.49,48.281,201.293,48.682z"/>
		<path fill="#FFFFFF" d="M212.379,40.689v8.852h4.469V36.307c0-1.088-0.029-2.177-0.086-3.266h1.891
			c-0.058,1.031-0.086,2.12-0.086,3.266v2.922h3.438c0.974,0,2.063-0.028,3.266-0.086v1.719c-1.203-0.057-2.292-0.086-3.266-0.086
			h-3.438v8.766h4.727c1.146,0,2.32-0.028,3.523-0.086v1.719c-1.203-0.058-2.378-0.086-3.523-0.086h-12.547
			c-1.203,0-2.406,0.028-3.609,0.086v-1.719c0.916,0.058,2.063,0.086,3.438,0.086v-8.852c0-0.974-0.029-1.977-0.086-3.008h1.977
			C212.407,38.713,212.379,39.716,212.379,40.689z"/>
		<path fill="#FFFFFF" d="M234.981,45.932c0.744-0.114,1.547-0.229,2.406-0.344v1.461c-0.516,0.058-1.318,0.172-2.406,0.344
			c0,2.292,0.028,3.953,0.086,4.984h-1.719c0.057-1.776,0.086-3.322,0.086-4.641c-2.292,0.344-3.753,0.602-4.383,0.773
			c-0.115-0.63-0.229-1.231-0.344-1.805c0.802-0.057,2.377-0.2,4.727-0.43v-2.922c-1.834,0-3.151,0.115-3.953,0.344l-0.602-1.719
			c0.516-0.4,0.988-1.06,1.418-1.977c0.43-0.916,0.787-1.861,1.074-2.836c-0.573,0-1.375,0.029-2.406,0.086v-1.547
			c0.916,0.058,1.833,0.086,2.75,0.086c0.4-1.203,0.658-2.263,0.773-3.18c0.974,0.287,1.633,0.487,1.977,0.602
			c-0.344,0.573-0.745,1.433-1.203,2.578h3.695v1.461c-0.917-0.057-1.69-0.086-2.32-0.086h-1.719
			c-0.287,0.859-0.945,2.464-1.977,4.813h2.492c0-1.26-0.029-2.291-0.086-3.094h1.719c-0.058,0.688-0.086,1.719-0.086,3.094
			c0.744,0,1.461-0.028,2.148-0.086v1.547c-0.631-0.057-1.347-0.086-2.148-0.086V45.932z M241.77,50.271
			c-1.261-0.83-2.378-1.446-3.352-1.848c0.344-0.4,0.658-0.83,0.945-1.289c0.63,0.344,1.547,0.859,2.75,1.547
			c1.146-1.375,2.177-2.635,3.094-3.781h-6.102l1.031-3.609h-0.43c-0.688,0-1.461,0.029-2.32,0.086V39.83
			c0.744,0.058,1.461,0.086,2.148,0.086h0.945l0.602-2.664h-0.773c-1.031,0-1.805,0.029-2.32,0.086v-1.547
			c0.859,0.115,1.547,0.172,2.063,0.172h1.203c0.229-1.317,0.372-2.435,0.43-3.352l2.063,0.344
			c-0.287,0.459-0.473,0.889-0.559,1.289c-0.086,0.401-0.215,0.975-0.387,1.719h3.094c0.744,0,1.461-0.028,2.148-0.086v1.461
			c-0.975-0.057-1.776-0.086-2.406-0.086h-3.008l-0.602,2.664h3.609c0.916,0,1.947-0.028,3.094-0.086v1.547
			c-1.089-0.057-2.178-0.086-3.266-0.086h-3.781l-0.602,2.406h6.531v1.375c-0.401,0.229-0.932,0.688-1.59,1.375
			c-0.659,0.688-1.504,1.719-2.535,3.094c0.974,0.631,1.861,1.231,2.664,1.805l-1.031,1.375
			C244.147,51.918,243.029,51.102,241.77,50.271z"/>
		<path fill="#FFFFFF" d="M262.137,49.928c0.859-0.658,1.661-1.504,2.406-2.535c-0.401-0.974-0.76-2.191-1.074-3.652
			c-0.315-1.461-0.53-3.137-0.645-5.027h-9.023c-0.975,0-1.948,0.029-2.922,0.086v-1.461c0.974,0.058,2.635,0.086,4.984,0.086
			v-1.547c-1.834,0-3.094,0.029-3.781,0.086v-1.461c0.688,0.058,1.947,0.086,3.781,0.086c0-0.802-0.029-1.518-0.086-2.148h1.805
			c-0.058,0.344-0.086,1.061-0.086,2.148h1.375c0.916,0,1.689-0.028,2.32-0.086v1.461c-0.688-0.057-1.461-0.086-2.32-0.086h-1.375
			v1.547h5.242c-0.058-1.775-0.144-3.466-0.258-5.07c0.744,0.115,1.346,0.172,1.805,0.172c-0.115,0.975-0.144,2.607-0.086,4.898
			h3.781c1.031,0,2.033-0.028,3.008-0.086v1.461c-1.031-0.057-2.034-0.086-3.008-0.086h-3.695c0.172,1.776,0.357,3.266,0.559,4.469
			c0.2,1.203,0.443,2.063,0.73,2.578c0.286-0.63,0.615-1.432,0.988-2.406c0.372-0.974,0.645-2.063,0.816-3.266
			c0.458,0.287,1.088,0.545,1.891,0.773c-0.459,0.917-0.874,1.891-1.246,2.922c-0.373,1.031-0.96,2.264-1.762,3.695
			c1.375,2.578,2.22,3.494,2.535,2.75c0.314-0.744,0.529-1.375,0.645-1.891c0.572,0.287,1.117,0.516,1.633,0.688
			c-0.859,2.291-1.647,3.48-2.363,3.566c-0.717,0.086-1.848-1.132-3.395-3.652c-1.203,1.433-2.55,2.606-4.039,3.523
			c-0.344-0.401-0.803-0.773-1.375-1.117C260.532,51.059,261.277,50.586,262.137,49.928z M258.098,52.463h-1.719
			c0-1.203,0.028-2.177,0.086-2.922c-2.35,0.344-3.925,0.631-4.727,0.859l-0.602-1.805c0.63,0,2.406-0.143,5.328-0.43v-2.063h-1.805
			c-0.745,0-1.49,0.086-2.234,0.258l-0.602-1.633c0.229-0.229,0.443-0.43,0.645-0.602c0.2-0.172,0.673-0.773,1.418-1.805
			c-0.631,0-1.404,0.029-2.32,0.086v-1.547c1.031,0.058,2.063,0.086,3.094,0.086c0.458-0.802,0.83-1.518,1.117-2.148
			c0.572,0.229,1.203,0.459,1.891,0.688c-0.459,0.516-0.859,1.003-1.203,1.461h1.891c1.146-0.057,2.205-0.086,3.18-0.086v1.547
			c-0.975-0.057-2.034-0.086-3.18-0.086h-2.75c-0.229,0.344-0.859,1.175-1.891,2.492h2.75c0-0.458-0.029-1.06-0.086-1.805h1.719
			c-0.058,0.745-0.086,1.347-0.086,1.805c0.974,0,2.063-0.028,3.266-0.086v1.461c-1.203-0.057-2.292-0.086-3.266-0.086v1.805
			c1.833-0.229,3.008-0.4,3.523-0.516c-0.115,0.573-0.201,1.061-0.258,1.461c-0.401,0-1.49,0.144-3.266,0.43
			C258.012,50.2,258.04,51.26,258.098,52.463z M269.356,35.447c-0.516,0.287-0.975,0.573-1.375,0.859
			c-0.287-0.4-0.975-1.231-2.063-2.492c0.4-0.286,0.83-0.572,1.289-0.859C268.353,34.158,269.069,34.989,269.356,35.447z"/>
		<path fill="#FFFFFF" d="M364.059,35.104c0-0.802-0.058-1.604-0.172-2.406h1.891c-0.115,0.688-0.172,1.49-0.172,2.406v2.234
			c0.63,0,1.403-0.028,2.32-0.086v1.547c-0.917-0.057-1.69-0.086-2.32-0.086v3.953c0.572-0.229,1.203-0.544,1.891-0.945
			c0.057,0.459,0.143,1.003,0.258,1.633c-0.516,0.172-1.232,0.459-2.148,0.859v6.359c-0.058,0.516-0.287,0.902-0.688,1.16
			c-0.401,0.258-1.318,0.501-2.75,0.73c0.057-0.516-0.115-1.203-0.516-2.063c0.974,0.114,1.618,0.129,1.934,0.043
			c0.314-0.086,0.473-0.329,0.473-0.73v-4.984c-0.401,0.172-1.203,0.573-2.406,1.203c-0.172-0.458-0.487-1.06-0.945-1.805
			c0.63-0.114,1.747-0.43,3.352-0.945v-4.469c-1.146,0-2.063,0.029-2.75,0.086v-1.547c0.63,0.058,1.547,0.086,2.75,0.086V35.104z
			 M372.438,34.373c-0.258,0.545-0.588,1.189-0.988,1.934h5.93c1.26,0,2.377-0.057,3.352-0.172v1.719
			c-1.031-0.057-2.148-0.086-3.352-0.086h-0.945v2.75c1.547,0,2.75-0.028,3.609-0.086v1.547c-0.859-0.057-2.063-0.086-3.609-0.086
			V44.9c1.604,0,2.807-0.028,3.609-0.086v1.547c-0.803-0.057-2.006-0.086-3.609-0.086v3.008h1.461c1.203,0,2.32-0.028,3.352-0.086
			v1.547c-1.031-0.058-2.148-0.086-3.352-0.086h-6.531v1.805h-1.633c0.057-0.975,0.086-2.406,0.086-4.297v-8.508
			c-0.344,0.573-0.803,1.261-1.375,2.063c-0.287-0.458-0.717-0.859-1.289-1.203c1.088-1.432,1.947-2.807,2.578-4.125
			c0.63-1.317,1.088-2.635,1.375-3.953c0.63,0.344,1.289,0.573,1.977,0.688C372.91,33.414,372.695,33.829,372.438,34.373z
			 M374.801,40.518v-2.75h-3.438v2.75H374.801z M374.801,44.9v-3.008h-3.438V44.9H374.801z M374.801,49.283v-3.008h-3.438v3.008
			H374.801z M377.379,34.76c-0.287,0.115-0.803,0.401-1.547,0.859c-0.229-0.516-0.773-1.317-1.633-2.406
			c0.744-0.344,1.289-0.602,1.633-0.773C376.118,32.898,376.634,33.672,377.379,34.76z"/>
		<path fill="#FFFFFF" d="M387.692,40.174c-0.058,1.089-0.086,2.206-0.086,3.352v4.813c1.891,1.203,4.383,1.834,7.477,1.891
			c3.094,0.058,5.786-0.057,8.078-0.344c-0.573,0.744-0.917,1.432-1.031,2.063c-2.12,0-3.996-0.015-5.629-0.043
			c-1.633-0.029-2.937-0.115-3.91-0.258c-0.975-0.144-1.848-0.358-2.621-0.645c-0.773-0.287-1.447-0.602-2.02-0.945
			c-0.573-0.344-1.117-0.271-1.633,0.215s-1.061,1.16-1.633,2.02c-0.459-0.459-0.975-0.889-1.547-1.289
			c1.317-1.146,2.291-1.947,2.922-2.406v-6.961c-1.031,0-1.948,0.029-2.75,0.086v-1.633c0.859,0.058,1.775,0.086,2.75,0.086H387.692
			z M388.293,36.994c-0.631,0.229-1.175,0.459-1.633,0.688c-0.516-1.432-1.117-2.807-1.805-4.125c0.572-0.172,1.088-0.4,1.547-0.688
			C387.147,34.359,387.777,35.734,388.293,36.994z M401.098,37.682c0,0.917,0.028,2.234,0.086,3.953h-1.719v-0.945h-6.531
			c-0.058,1.547-0.272,2.865-0.645,3.953c-0.373,1.089-1.046,2.464-2.02,4.125c-0.459-0.344-1.031-0.658-1.719-0.945
			c0.916-1.031,1.561-2.033,1.934-3.008c0.372-0.974,0.615-1.891,0.73-2.75c0.114-0.859,0.172-1.977,0.172-3.352
			s-0.029-3.008-0.086-4.898h9.883C401.126,35.477,401.098,36.766,401.098,37.682z M399.465,39.143v-3.781h-6.531v3.781H399.465z
			 M401.527,47.221c-0.459,0.344-0.975,0.831-1.547,1.461c-1.318-1.661-2.951-3.466-4.898-5.414c0.4-0.344,0.802-0.773,1.203-1.289
			C397.087,42.609,398.834,44.356,401.527,47.221z"/>
		<path fill="#FFFFFF" d="M415.277,35.404c-0.172,0.659-0.401,1.562-0.688,2.707h6.875c0.572,0,1.432-0.028,2.578-0.086v1.633
			c-1.146-0.057-2.006-0.086-2.578-0.086h-7.219c-0.344,0.859-0.717,1.719-1.117,2.578h9.109c-1.089,2.636-2.607,4.842-4.555,6.617
			c1.547,1.089,3.81,1.805,6.789,2.148c-0.401,0.458-0.745,1.031-1.031,1.719c-1.146-0.229-2.32-0.559-3.523-0.988
			s-2.378-1.046-3.523-1.848c-0.917,0.573-2.034,1.131-3.352,1.676c-1.318,0.544-2.664,0.988-4.039,1.332
			c-0.115-0.573-0.401-1.117-0.859-1.633c1.26-0.172,2.521-0.473,3.781-0.902c1.26-0.43,2.377-0.959,3.352-1.59
			c-0.975-0.974-2.063-2.377-3.266-4.211c-0.631,1.031-1.433,2.034-2.406,3.008c-0.975,0.975-2.034,1.862-3.18,2.664
			c-0.229-0.4-0.688-0.83-1.375-1.289c0.859-0.458,1.704-1.06,2.535-1.805c0.83-0.744,1.704-1.732,2.621-2.965
			c0.916-1.231,1.689-2.735,2.32-4.512c-1.49,0-2.636,0.029-3.438,0.086c-0.803,0.058-1.404,0.172-1.805,0.344
			c-0.172-0.516-0.401-1.06-0.688-1.633c0.572-0.114,0.988-0.544,1.246-1.289c0.258-0.744,0.529-1.891,0.816-3.438
			c0.458,0.229,1.088,0.459,1.891,0.688c-0.287,0.573-0.545,1.16-0.773,1.762c-0.229,0.602-0.487,1.275-0.773,2.02h3.953
			c0.458-1.833,0.802-3.58,1.031-5.242c0.63,0.344,1.289,0.545,1.977,0.602C415.678,34.102,415.449,34.746,415.277,35.404z
			 M416.567,47.822c1.26-1.031,2.377-2.463,3.352-4.297h-6.703C414.017,44.958,415.134,46.391,416.567,47.822z M422.067,36.307
			c-0.401,0.229-0.889,0.602-1.461,1.117c-0.917-1.317-1.805-2.435-2.664-3.352c0.4-0.286,0.802-0.658,1.203-1.117
			C420.118,34.044,421.092,35.161,422.067,36.307z"/>
		<path fill="#FFFFFF" d="M434.184,35.877c0.63-1.26,1.088-2.492,1.375-3.695c0.802,0.287,1.518,0.545,2.148,0.773
			c-0.287,0.229-0.803,1.203-1.547,2.922h6.359c1.719,0,3.122-0.028,4.211-0.086v1.547h-11.344
			c-0.917,1.604-1.776,2.894-2.578,3.867h4.469c0-1.26-0.029-2.291-0.086-3.094h1.805c-0.058,0.803-0.086,1.834-0.086,3.094h6.016
			c-0.058,1.031-0.086,2.063-0.086,3.094v3.523c0,1.089-0.301,1.776-0.902,2.063c-0.602,0.287-1.476,0.487-2.621,0.602
			c-0.115-0.802-0.373-1.461-0.773-1.977c1.317,0,2.105-0.086,2.363-0.258s0.357-0.63,0.301-1.375v-4.211h-4.297v5.844
			c0,1.203,0.028,2.521,0.086,3.953h-1.805c0.057-1.433,0.086-2.75,0.086-3.953v-5.844h-4.039V50.4h-1.719
			c0.057-1.203,0.086-2.377,0.086-3.523v-4.125c-0.745,0.859-1.862,1.948-3.352,3.266c-0.401-0.458-0.917-0.888-1.547-1.289
			c1.26-0.859,2.478-1.904,3.652-3.137c1.174-1.231,2.191-2.649,3.051-4.254h-2.063c-1.433,0-2.75,0.029-3.953,0.086v-1.633
			c1.203,0.058,2.521,0.086,3.953,0.086H434.184z"/>
		<path fill="#FFFFFF" d="M545.129,35.447c-0.115,0.745-0.258,1.504-0.43,2.277s-0.344,1.533-0.516,2.277
			c-0.172,0.745-0.373,1.433-0.602,2.063l-0.43,1.375c0.344,0.459,0.744,1.074,1.203,1.848c0.458,0.773,0.916,1.562,1.375,2.363
			c-0.516,0.287-1.003,0.602-1.461,0.945c-0.344-0.63-0.659-1.188-0.945-1.676c-0.287-0.486-0.631-1.103-1.031-1.848
			c-0.401,0.975-0.889,1.963-1.461,2.965c-0.573,1.003-1.203,1.991-1.891,2.965c-0.573-0.459-1.117-0.83-1.633-1.117
			c0.802-0.859,1.475-1.719,2.02-2.578c0.544-0.859,1.16-2.033,1.848-3.523c-0.401-0.688-0.816-1.317-1.246-1.891
			c-0.43-0.572-0.988-1.26-1.676-2.063c0.4-0.344,0.859-0.688,1.375-1.031c0.286,0.401,0.645,0.874,1.074,1.418
			c0.43,0.545,0.873,1.16,1.332,1.848c0.229-0.744,0.458-1.518,0.688-2.32c0.229-0.802,0.43-1.775,0.602-2.922h-2.664
			c-0.975,0-1.948,0.029-2.922,0.086v-1.547c1.031,0.058,1.977,0.086,2.836,0.086H545.129z M551.231,42.838
			c0,0.745,0.229,1.604,0.688,2.578c0.458,0.975,1.002,1.805,1.633,2.492c0.63,0.688,1.289,1.232,1.977,1.633
			c0.688,0.401,1.289,0.659,1.805,0.773c-0.459,0.516-0.859,1.117-1.203,1.805c-2.234-1.433-3.667-2.664-4.297-3.695
			c-0.631-1.031-1.089-1.977-1.375-2.836c-0.573,1.547-1.261,2.822-2.063,3.824c-0.803,1.002-1.948,2.02-3.438,3.051
			c-0.459-0.516-0.975-1.003-1.547-1.461c1.26-0.516,2.277-1.16,3.051-1.934s1.375-1.575,1.805-2.406
			c0.43-0.83,0.716-1.646,0.859-2.449c0.143-0.802,0.229-1.475,0.258-2.02c0.028-0.544,0.043-1.332,0.043-2.363
			c0.572,0.058,1.26,0.144,2.063,0.258C551.317,41.177,551.231,42.094,551.231,42.838z M549.211,34.674
			c-0.144,0.573-0.301,1.146-0.473,1.719h7.648c-0.172,0.459-0.387,1.018-0.645,1.676c-0.258,0.659-0.53,1.59-0.816,2.793
			c-0.631-0.172-1.203-0.286-1.719-0.344c0.172-0.572,0.329-1.045,0.473-1.418c0.143-0.372,0.271-0.816,0.387-1.332h-5.758
			c-0.229,0.688-0.459,1.332-0.688,1.934c-0.229,0.602-0.487,1.304-0.773,2.105c-0.631-0.286-1.175-0.486-1.633-0.602
			c0.344-0.63,0.658-1.289,0.945-1.977c0.286-0.688,0.516-1.403,0.688-2.148c0.172-0.744,0.344-1.518,0.516-2.32
			c0.172-0.802,0.314-1.547,0.43-2.234c0.63,0.172,1.346,0.344,2.148,0.516C549.598,33.557,549.354,34.102,549.211,34.674z"/>
		<path fill="#FFFFFF" d="M572.543,52.248c-1.662-0.086-3.051-0.201-4.168-0.344c-1.117-0.144-2.135-0.387-3.051-0.73
			c-0.917-0.344-1.633-0.674-2.148-0.988s-1.018-0.172-1.504,0.43c-0.487,0.602-0.988,1.246-1.504,1.934
			c-0.401-0.401-0.859-0.803-1.375-1.203c1.203-1.146,2.091-1.947,2.664-2.406v-7.734c-0.688,0-1.49,0.029-2.406,0.086v-1.633
			c0.974,0.058,1.805,0.086,2.492,0.086h1.719c-0.058,1.375-0.086,2.664-0.086,3.867v4.984c1.661,1.146,4.254,1.776,7.777,1.891
			s6.287,0.057,8.293-0.172c-0.459,0.802-0.745,1.489-0.859,2.063C576.153,52.377,574.204,52.334,572.543,52.248z M559.91,33.299
			c0.516-0.229,1.088-0.43,1.719-0.602c0.744,2.063,1.203,3.467,1.375,4.211c-0.573,0.115-1.146,0.287-1.719,0.516
			C561.113,36.68,560.654,35.305,559.91,33.299z M565.754,47.564l-0.859-1.461c0.458-0.4,0.658-1.031,0.602-1.891v-7.219
			c0-0.974-0.029-1.977-0.086-3.008c1.891-0.286,3.294-0.802,4.211-1.547c0.286,0.688,0.688,1.261,1.203,1.719
			c-0.688,0.115-1.92,0.401-3.695,0.859v10.141c0.4-0.172,1.346-0.688,2.836-1.547c0,0.516,0.057,1.117,0.172,1.805
			C569.506,45.588,568.045,46.305,565.754,47.564z M575.723,44.729c0.229-0.229,0.344-0.602,0.344-1.117v-8.336h-3.094v10.828
			c0,0.917,0.057,1.977,0.172,3.18h-1.891c0.057-1.203,0.086-2.291,0.086-3.266v-8.594c0-1.146-0.029-2.349-0.086-3.609h6.531
			c-0.058,1.203-0.086,2.378-0.086,3.523v6.875c0,1.089-0.258,1.762-0.773,2.02s-1.203,0.444-2.063,0.559
			c-0.172-0.63-0.401-1.203-0.688-1.719C574.978,45.072,575.493,44.958,575.723,44.729z"/>
		<path fill="#FFFFFF" d="M584.317,34.674c0-0.63-0.029-1.289-0.086-1.977h1.805c-0.115,0.688-0.172,1.347-0.172,1.977v2.32h0.859
			c0.344,0,0.945-0.028,1.805-0.086v1.633c-0.975-0.057-1.662-0.086-2.063-0.086h-0.602v3.953c0.458-0.172,0.859-0.4,1.203-0.688
			c0.172,0.287,0.4,0.674,0.688,1.16c0.286,0.487,0.572,0.988,0.859,1.504c-0.401,0.172-0.889,0.459-1.461,0.859
			c-0.172-0.286-0.358-0.673-0.559-1.16c-0.201-0.486-0.444-0.873-0.73-1.16v6.445c0,1.088,0.028,2.148,0.086,3.18h-1.719
			c0.057-0.917,0.086-1.977,0.086-3.18v-6.875c-0.229,0.573-0.573,1.332-1.031,2.277c-0.459,0.945-0.889,1.733-1.289,2.363
			c-0.401-0.572-0.859-1.002-1.375-1.289c0.516-0.572,0.945-1.188,1.289-1.848c0.344-0.658,0.673-1.317,0.988-1.977
			c0.314-0.658,0.572-1.289,0.773-1.891c0.2-0.602,0.357-1.16,0.473-1.676h-0.859c-0.287,0-0.889,0.029-1.805,0.086v-1.633
			c0.859,0.058,1.461,0.086,1.805,0.086h1.031V34.674z M596.906,39.314c-0.545-0.458-1.061-1.017-1.547-1.676
			c-0.487-0.658-1.046-1.504-1.676-2.535c-0.459,0.975-0.889,1.791-1.289,2.449c-0.401,0.659-0.831,1.275-1.289,1.848h5.586v1.547
			c-0.401-0.057-0.803-0.086-1.203-0.086h-2.578c-0.688,0-1.375,0.029-2.063,0.086V39.83l-0.945,0.945
			c-0.401,0.459-0.773,0.859-1.117,1.203c-0.344-0.516-0.859-0.945-1.547-1.289c0.859-0.572,1.604-1.217,2.234-1.934
			c0.63-0.716,1.16-1.403,1.59-2.063c0.43-0.658,0.802-1.346,1.117-2.063c0.314-0.716,0.529-1.389,0.645-2.02
			c0.744,0.172,1.432,0.344,2.063,0.516c-0.229,0.287-0.373,0.516-0.43,0.688c1.088,1.948,2.234,3.309,3.438,4.082
			s2.291,1.332,3.266,1.676c-0.573,0.516-0.917,1.117-1.031,1.805c-0.573-0.286-1.117-0.587-1.633-0.902
			C597.981,40.16,597.45,39.773,596.906,39.314z M597.981,46.318c-0.401,1.061-0.889,2.221-1.461,3.48h1.461
			c0.859,0,1.719-0.028,2.578-0.086v1.547c-0.688-0.058-1.547-0.086-2.578-0.086h-7.219c-1.604,0-2.664,0.028-3.18,0.086v-1.547
			c0.572,0.058,1.661,0.086,3.266,0.086h4.039c0.4-0.802,0.787-1.732,1.16-2.793c0.372-1.06,0.658-1.919,0.859-2.578
			c0.2-0.658,0.387-1.446,0.559-2.363c0.744,0.287,1.432,0.516,2.063,0.688C598.897,44.07,598.381,45.259,597.981,46.318z
			 M591.406,45.373c0.372,0.889,0.701,1.733,0.988,2.535c-0.459,0.172-1.031,0.43-1.719,0.773c-0.287-1.031-0.545-1.833-0.773-2.406
			c-0.229-0.572-0.631-1.432-1.203-2.578c0.688-0.344,1.231-0.63,1.633-0.859C590.676,43.641,591.033,44.485,591.406,45.373z
			 M594.715,44.729c0.344,0.975,0.602,1.69,0.773,2.148c-0.631,0.115-1.203,0.315-1.719,0.602c-0.229-0.916-0.473-1.747-0.73-2.492
			c-0.258-0.744-0.588-1.489-0.988-2.234c0.688-0.286,1.26-0.516,1.719-0.688C594.056,42.867,594.371,43.755,594.715,44.729z"/>
		<path fill="#FFFFFF" d="M612.16,35.361c0-0.916-0.029-1.805-0.086-2.664h1.719c-0.058,0.803-0.086,1.69-0.086,2.664h5.328
			c0.802,0,1.775-0.028,2.922-0.086v1.633c-1.146-0.057-2.12-0.086-2.922-0.086h-3.094c0.63,0.917,1.575,1.719,2.836,2.406
			c1.26,0.688,2.692,1.232,4.297,1.633c-0.573,0.459-0.975,1.031-1.203,1.719c-1.776-0.63-3.28-1.403-4.512-2.32
			c-1.232-0.916-2.277-2.063-3.137-3.438h-0.516v4.727h5.414c-0.058,1.031-0.086,2.178-0.086,3.438c0,1.203,0.028,2.406,0.086,3.609
			h-12.203c0.057-1.088,0.086-2.263,0.086-3.523c0-1.317-0.029-2.492-0.086-3.523c-0.745,0.459-1.633,0.945-2.664,1.461
			c-0.344-0.63-0.745-1.146-1.203-1.547c1.26-0.286,2.521-0.859,3.781-1.719c1.26-0.859,2.263-1.833,3.008-2.922h-2.492
			c-1.031,0-2.12,0.029-3.266,0.086v-1.633c1.146,0.058,2.234,0.086,3.266,0.086H612.16z M619.551,50.4
			c0.974,0,1.919-0.028,2.836-0.086v1.547c-2.178-0.058-3.695-0.086-4.555-0.086h-10.914c-1.031,0-2.063,0.028-3.094,0.086v-1.547
			c1.088,0.058,2.119,0.086,3.094,0.086H619.551z M612.16,41.549v-4.727h-0.43c-0.631,0.975-1.318,1.834-2.063,2.578
			c-0.745,0.745-1.633,1.461-2.664,2.148H612.16z M617.488,44.385v-1.461h-8.938v1.461H617.488z M617.488,47.221v-1.547h-8.938
			v1.547H617.488z"/>
	</g>
	<path id="rect1338" inkscape:connector-curvature="0" fill="#FFFFFF" d="M326.591,31.789h12.762v4.515h-12.762L326.591,31.789z
		 M325.818,36.08V17.671h4.515V36.08L325.818,36.08z M332.585,34.33c0,2.503-2.029,4.533-4.533,4.533
		c-2.503,0-4.533-2.029-4.533-4.533c0-2.503,2.029-4.533,4.533-4.533C330.556,29.797,332.585,31.826,332.585,34.33z"/>
</g>
<g id="图层_2">
	<g>
		<path fill="#FFFFFF" d="M-85.892,39.56h-3.823v-2.285c-0.635,0.889-1.384,1.551-2.249,1.984c-0.864,0.435-1.736,0.652-2.615,0.652
			c-1.787,0-3.318-0.72-4.592-2.16s-1.912-3.45-1.912-6.028c0-2.637,0.62-4.641,1.86-6.013s2.808-2.058,4.702-2.058
			c1.738,0,3.242,0.723,4.512,2.168v-7.734h4.116V39.56z M-96.879,31.444c0,1.66,0.229,2.861,0.688,3.604
			c0.664,1.074,1.592,1.611,2.783,1.611c0.947,0,1.753-0.402,2.417-1.208s0.996-2.01,0.996-3.611c0-1.787-0.322-3.074-0.967-3.86
			s-1.47-1.179-2.476-1.179c-0.977,0-1.794,0.388-2.454,1.165S-96.879,29.901-96.879,31.444z"/>
	</g>
	<g>
		<path fill="#F37526" d="M-31.308,21.656c0-2.813-0.048-4.827-0.141-6.047h3.094c-0.095,1.125-0.141,3.142-0.141,6.047h6.188
			c1.78,0,3.467-0.046,5.063-0.141v2.531c-1.595-0.092-3.283-0.141-5.063-0.141h-6.188v5.625h8.297c2.061,0,3.983-0.046,5.766-0.141
			v2.531c-1.782-0.092-3.656-0.141-5.625-0.141h-6.75c1.688,2.531,3.538,4.711,5.555,6.539c2.015,1.828,4.852,3.259,8.508,4.289
			c-1.22,0.563-2.063,1.547-2.531,2.953c-2.531-0.936-4.9-2.342-7.102-4.219c-2.204-1.874-4.243-4.5-6.117-7.875v9.844
			c0,1.779,0.046,3.421,0.141,4.922h-3.234c0.187-1.501,0.281-3.143,0.281-4.922V33.047c-2.25,3.656-4.454,6.423-6.609,8.297
			c-2.158,1.877-4.078,3.375-5.766,4.5c-0.376-0.844-1.22-1.688-2.531-2.531c1.593-0.563,3.632-1.874,6.117-3.938
			c2.483-2.061,4.663-4.592,6.539-7.594h-7.031c-2.063,0-3.656,0.049-4.781,0.141v-2.531c1.406,0.095,3.094,0.141,5.063,0.141h9
			v-5.625h-5.906c-2.25,0-4.078,0.048-5.484,0.141v-2.531c1.406,0.095,3.14,0.141,5.203,0.141H-31.308z"/>
		<path fill="#F37526" d="M12.145,27.422c1.78,0,3.608-0.046,5.484-0.141v2.672c-1.688-0.092-3.705-0.141-6.047-0.141H8.488v5.625
			h5.906c1.03,0,2.483-0.046,4.359-0.141v2.672c-1.876-0.092-3.375-0.141-4.5-0.141H8.488v6.609
			c3.938,0.471,8.624,0.422,14.063-0.141c-0.751,1.217-1.22,2.342-1.406,3.375c-3.751,0-6.845-0.049-9.281-0.141
			c-2.439-0.095-4.5-0.376-6.188-0.844c-1.688-0.471-3.188-1.174-4.5-2.109c-1.314-0.936-2.531-2.061-3.656-3.375
			c-1.501,2.721-3.234,5.063-5.203,7.031c-0.844-0.844-1.782-1.455-2.813-1.828c2.624-2.061,4.546-4.5,5.766-7.313
			c1.217-2.813,1.874-4.968,1.969-6.469c0.936,0.563,2.061,0.984,3.375,1.266c-0.281,0.376-0.587,0.963-0.914,1.758
			c-0.33,0.798-0.728,1.807-1.195,3.023c0.655,0.844,1.639,1.807,2.953,2.883c1.312,1.079,2.718,1.853,4.219,2.32V29.813h-4.5
			c-1.595,0-3.188,0.048-4.781,0.141v-2.672c1.593,0.095,3.467,0.141,5.625,0.141H12.145z M20.723,23.906
			c0,0.657,0.046,1.547,0.141,2.672H17.91v-3.375h-22.5v3.375h-2.953c0.092-0.749,0.141-1.593,0.141-2.531
			c0-0.936-0.048-1.969-0.141-3.094h28.406C20.769,22.267,20.723,23.251,20.723,23.906z M5.957,15.188
			c1.03,1.22,1.969,2.626,2.813,4.219c-1.314,0.563-2.25,1.033-2.813,1.406c-0.189-0.844-1.033-2.25-2.531-4.219
			C4.27,16.313,5.113,15.845,5.957,15.188z"/>
		<path fill="#F37526" d="M31.41,48.234c0.092-1.033,0.141-3.002,0.141-5.906v-7.875c-0.281,1.125-0.728,2.32-1.336,3.586
			c-0.611,1.266-1.244,2.415-1.898,3.445c-0.657-0.844-1.501-1.498-2.531-1.969c1.217-1.312,2.32-3.115,3.305-5.414
			c0.984-2.296,1.617-4.335,1.898-6.117c-0.844,0-2.345,0.048-4.5,0.141v-2.531c2.155,0.095,3.843,0.141,5.063,0.141v-5.906
			l-3.797,0.844c-0.281-0.655-0.611-1.358-0.984-2.109c1.688-0.281,3.256-0.584,4.711-0.914c1.452-0.327,2.883-0.819,4.289-1.477
			c0.563,0.844,1.266,1.642,2.109,2.391c-0.844,0.095-1.595,0.211-2.25,0.352c-0.657,0.141-1.173,0.259-1.547,0.352v6.469
			c1.499,0,2.718-0.046,3.656-0.141v2.531c-0.844-0.092-2.063-0.141-3.656-0.141v4.359c0.374-0.281,0.936-0.749,1.688-1.406
			c1.312,1.969,2.202,3.424,2.672,4.359c-0.751,0.563-1.455,1.174-2.109,1.828c-0.47-1.312-1.22-2.718-2.25-4.219v9.422
			c0,2.439,0.046,4.405,0.141,5.906H31.41z M50.535,19.266h3.656c1.406,0,2.858-0.046,4.359-0.141v2.672
			c-1.501-0.281-2.953-0.374-4.359-0.281H42.379c-1.501-0.092-2.861-0.092-4.078,0v-2.391c1.125,0.095,2.437,0.141,3.938,0.141
			h5.344c-0.189-0.563-0.563-1.639-1.125-3.234c1.125-0.187,2.109-0.422,2.953-0.703C49.878,16.734,50.254,18.048,50.535,19.266z
			 M58.41,33.047c-0.095,0.938-0.141,2.345-0.141,4.219v7.031c0,1.688-0.281,2.742-0.844,3.164s-1.828,0.865-3.797,1.336
			c-0.281-1.22-0.703-2.345-1.266-3.375c1.406,0.187,2.342,0.187,2.813,0c0.468-0.189,0.703-0.844,0.703-1.969v-8.297H41.254v13.359
			h-2.531c0.092-1.033,0.141-3.656,0.141-7.875s-0.048-6.75-0.141-7.594H58.41z M55.879,27.422c0,1.033,0.046,2.204,0.141,3.516
			H40.832c0.092-1.312,0.141-2.483,0.141-3.516c0-1.03-0.048-2.155-0.141-3.375H56.02C55.925,25.172,55.879,26.297,55.879,27.422z
			 M53.488,28.828v-2.672H43.363v2.672H53.488z M52.645,40.641c0,1.22,0.046,2.345,0.141,3.375h-9
			c0.092-1.125,0.141-2.25,0.141-3.375c0-1.217-0.048-2.342-0.141-3.375h9C52.691,38.299,52.645,39.424,52.645,40.641z
			 M50.254,42.047v-2.813h-3.938v2.813H50.254z"/>
	</g>
	<g>
		<path fill="#FFFFFF" d="M497.798,19.422h3.938l-0.984,18.703h-1.969L497.798,19.422z M497.798,41.219h3.938v4.078h-3.938V41.219z"
			/>
	</g>
</g>
</svg>
