<?xml version="1.0" encoding="utf-8"?>
<!-- Generator: Adobe Illustrator 17.0.0, SVG Export Plug-In . SVG Version: 6.00 Build 0)  -->
<!DOCTYPE svg PUBLIC "-//W3C//DTD SVG 1.1//EN" "http://www.w3.org/Graphics/SVG/1.1/DTD/svg11.dtd">
<svg version="1.1" xmlns="http://www.w3.org/2000/svg" xmlns:xlink="http://www.w3.org/1999/xlink" x="0px" y="0px" width="800.5px"
	 height="64px" viewBox="-149.98 0 800.5 64" enable-background="new -149.98 0 800.5 64" xml:space="preserve">
<g id="svg2" xmlns:dc="http://purl.org/dc/elements/1.1/" xmlns:cc="http://creativecommons.org/ns#" xmlns:rdf="http://www.w3.org/1999/02/22-rdf-syntax-ns#" xmlns:svg="http://www.w3.org/2000/svg" xmlns:sodipodi="http://sodipodi.sourceforge.net/DTD/sodipodi-0.dtd" xmlns:inkscape="http://www.inkscape.org/namespaces/inkscape" sodipodi:docname="cc_byncnd.flat.guokr.svg" inkscape:version="0.48.2 r9819">
	
		<sodipodi:namedview  showguides="true" fit-margin-left="0" fit-margin-top="0" inkscape:cy="32" inkscape:cx="175.51968" inkscape:zoom="2.72619" showgrid="true" guidetolerance="10" gridtolerance="10" objecttolerance="10" borderopacity="1" pagecolor="#ffffff" bordercolor="#666666" id="namedview31" inkscape:snap-global="false" inkscape:guide-bbox="true" inkscape:snap-page="false" inkscape:snap-grids="true" fit-margin-bottom="0" fit-margin-right="0" inkscape:current-layer="svg2" inkscape:window-maximized="0" inkscape:window-y="367" inkscape:window-x="102" inkscape:window-height="746" inkscape:window-width="1088" inkscape:pageshadow="2" inkscape:pageopacity="0">
		<sodipodi:guide  position="24.952733,105.26934" orientation="1,0" id="guide3057"></sodipodi:guide>
		<sodipodi:guide  position="74.858199,102.93002" orientation="1,0" id="guide3059"></sodipodi:guide>
		<sodipodi:guide  position="-5.0685239,58.872855" orientation="0,1" id="guide3061"></sodipodi:guide>
		<sodipodi:guide  position="-22.613414,5.8482968" orientation="0,1" id="guide3063"></sodipodi:guide>
		<inkscape:grid  type="xygrid" enabled="true" empspacing="5" visible="true" id="grid3065" snapvisiblegridlinesonly="true">
			</inkscape:grid>
		<sodipodi:guide  position="124.98094,66.588207" orientation="1,0" id="guide3067"></sodipodi:guide>
		<sodipodi:guide  position="174.83673,100.39453" orientation="1,0" id="guide3069"></sodipodi:guide>
		<sodipodi:guide  position="200.1061,86.393931" orientation="1,0" id="guide3071"></sodipodi:guide>
		<sodipodi:guide  position="249.96189,84.345063" orientation="1,0" id="guide3073"></sodipodi:guide>
		<sodipodi:guide  position="274.88978,61.466038" orientation="1,0" id="guide3075"></sodipodi:guide>
		<sodipodi:guide  position="325.08704,51.563176" orientation="1,0" id="guide3077"></sodipodi:guide>
	</sodipodi:namedview>
	<path id="rect13" fill="#555555" d="M-144.983,0.006L88.382,0c7.368,0,13.07,2.358,13.07,5.267v53.466
		c0,2.909-5.702,5.267-12.735,5.267H-144.73c-5.466,0-5.27-2.358-5.27-5.267V5.267C-150,2.358-150.188,0-144.983,0.006z"/>
	<path id="rect3034" fill="#85C155" d="M107.727,0h536.517c3.466,0,6.276,2.81,6.276,6.276v51.449c0,3.466-2.81,6.276-6.276,6.276
		H107.727c-3.466,0-6.276-2.81-6.276-6.276V6.276C101.452,2.81,104.262,0,107.727,0z"/>
	<path id="path17" inkscape:connector-curvature="0" fill="#85C155" d="M92.22,0h35.688v64H92.22L92.22,0z"/>
	<g id="layer3" transform="matrix(0.78125,0,0,0.78125,125.1302,6.798057)" inkscape:label="Dessin">
		<path id="path1334" inkscape:connector-curvature="0" fill="#FFFFFF" d="M31.188,0C13.905,0.438,0,14.612,0,32
			c0,17.664,14.336,32,32,32s32-14.336,32-32S49.664,0,32,0C31.724,0,31.462-0.007,31.188,0z M31.156,5.5
			c0.284-0.009,0.558,0,0.844,0c14.628,0,26.5,11.872,26.5,26.5c0,14.628-11.872,26.5-26.5,26.5S5.5,46.628,5.5,32
			C5.5,17.658,16.923,5.951,31.156,5.5z"/>
		<g id="g6525">
			
				<path id="path2838" sodipodi:type="arc" sodipodi:cx="32.0625" sodipodi:cy="15.75" sodipodi:rx="4.625" sodipodi:ry="4.625" fill="#FFFFFF" d="
				M36.625,15.936c0,2.554-2.071,4.625-4.625,4.625s-4.625-2.071-4.625-4.625s2.071-4.625,4.625-4.625S36.625,13.381,36.625,15.936z
				"/>
			<path id="path3572" sodipodi:nodetypes="ccccssccssccc" inkscape:connector-curvature="0" fill="#FFFFFF" d="M27.215,52.689h9.57
				V37.311h2.893c0,0-0.001-10.99,0-12.72c-0.003-0.456,0.041-1.365-0.621-2.027c-0.662-0.662-1.555-0.622-2.027-0.621
				c-0.472,0.001-9.589,0.001-10.06,0s-1.365-0.041-2.027,0.621c-0.662,0.662-0.618,1.571-0.621,2.027c0.001,1.73,0,12.72,0,12.72
				h2.893L27.215,52.689z"/>
		</g>
	</g>
	<g id="g3001" transform="matrix(0.78998926,0,0,0.78890484,24.562303,6.561046)">
		<path id="path4" inkscape:connector-curvature="0" fill="#FFFFFF" d="M-157.919,0.311c-8.682,0-16.322,3.213-22.226,9.203
			c-6.078,6.164-9.377,14.152-9.377,22.486c0,8.422,3.212,16.236,9.29,22.313c6.078,6.078,13.978,9.377,22.313,9.377
			c8.334,0,16.409-3.299,22.66-9.463c5.904-5.817,9.029-13.544,9.029-22.227c0-8.595-3.125-16.408-9.116-22.399
			C-141.423,3.523-149.237,0.311-157.919,0.311z M-157.833,6.041c7.12,0,13.458,2.691,18.406,7.641
			c4.862,4.861,7.466,11.286,7.466,18.318c0,7.119-2.518,13.371-7.379,18.146c-5.123,5.035-11.721,7.727-18.493,7.727
			c-6.858,0-13.283-2.691-18.232-7.641c-4.949-4.949-7.727-11.46-7.727-18.232c0-6.858,2.778-13.369,7.727-18.406
			C-171.203,8.646-164.952,6.041-157.833,6.041z"/>
		<path id="c" inkscape:connector-curvature="0" fill="#FFFFFF" d="M-160.773,26.734c-1.79-3.264-4.844-4.563-8.389-4.563
			c-5.16,0-9.267,3.65-9.267,9.828c0,6.283,3.861,9.829,9.442,9.829c3.581,0,6.635-1.966,8.319-4.949l-3.931-2.001
			c-0.878,2.105-2.212,2.738-3.896,2.738c-2.914,0-4.248-2.422-4.248-5.617c0-3.193,1.124-5.616,4.248-5.616
			c0.842,0,2.527,0.456,3.51,2.563L-160.773,26.734z"/>
	</g>
	<g id="g3118" transform="matrix(0.78125,0,0,0.78125,200.38329,6.7410061)">
		<path id="path1334-2" inkscape:connector-curvature="0" fill="#FFFFFF" d="M159.188,0C141.905,0.438,128,14.612,128,32
			c0,17.664,14.336,32,32,32s32-14.336,32-32S177.664,0,160,0C159.724,0,159.462-0.007,159.188,0z M159.156,5.5
			c0.284-0.009,0.558,0,0.844,0c14.628,0,26.5,11.872,26.5,26.5S174.628,58.5,160,58.5c-14.628,0-26.5-11.872-26.5-26.5
			C133.5,17.658,144.923,5.951,159.156,5.5z"/>
		<path id="text1367" sodipodi:nodetypes="cssscssssccscscscscsc" inkscape:connector-curvature="0" fill="#FFFFFF" d="
			M153.645,38.743c2.061,2.882,8.35,3.09,10.51,1.868c0.793-0.449,0.991-1.747,0.991-2.627c0-0.604-0.159-1.079-0.477-1.424
			c-0.336-0.345-1.189-1.221-2.178-1.48c-5.016-1.294-8.492-2.911-9.852-4.085c-1.696-1.467-1.969-2.425-1.969-4.979
			c0-2.554,0.734-4.695,2.395-6.231c1.66-1.536,4.071-2.304,7.233-2.304c3.02,0,7.268,0.797,9.339,3.256l-3.453,3.756
			c-1.947-1.635-3.396-1.783-5.78-1.783c-1.501,0-2.283,0.216-2.919,0.647c-0.636,0.414-0.954,0.958-0.954,1.631
			c0,0.604,0.291,1.105,0.874,1.501c0.583,0.414,2.106,1.036,5.144,1.864c3.409,0.932,5.723,2.062,6.942,3.391
			c1.201,1.329,1.802,3.098,1.802,5.307c0,2.658-0.936,4.85-2.808,6.575c-1.855,1.726-4.138,3.067-7.423,3.067
			c-4.229,0-9.874-1.494-11.431-4.255"/>
		<path id="rect2247" sodipodi:nodetypes="ccccc" inkscape:connector-curvature="0" fill="#FFFFFF" d="M187.344,40.106l-2.407,5.28
			l-51.122-23.034l2.407-5.28L187.344,40.106z"/>
		<path id="rect2278" inkscape:connector-curvature="0" fill="#FFFFFF" d="M158.375,12.875v6.844h3.25v-6.844H158.375z
			 M158.375,44.969v6.156h3.25v-6.156H158.375z"/>
	</g>
	<g id="g3044" transform="matrix(0.78125,0,0,0.78125,274.79886,6.7898746)">
		<path id="path1334-3" inkscape:connector-curvature="0" fill="#FFFFFF" d="M287.47,0c-17.283,0.438-31.188,14.612-31.188,32
			c0,17.664,14.336,32,32,32s32-14.336,32-32s-14.336-32-32-32C288.007,0,287.744-0.007,287.47,0z M287.439,5.5
			c0.284-0.009,0.558,0,0.844,0c14.628,0,26.5,11.872,26.5,26.5s-11.872,26.5-26.5,26.5s-26.5-11.872-26.5-26.5
			C261.783,17.658,273.206,5.951,287.439,5.5z"/>
		<path id="rect1338" inkscape:connector-curvature="0" fill="#FFFFFF" d="M277.067,24.432h23.563v5.78h-23.563V24.432z
			 M277.067,34.879h23.563v5.78h-23.563V34.879z"/>
	</g>
	<g>
		<path fill="#FFFFFF" d="M183.999,24l3.849-10.021h1.429L193.378,24h-1.511l-1.169-3.035h-4.19L185.407,24H183.999z
			 M186.891,19.885h3.397l-1.046-2.775c-0.319-0.843-0.556-1.536-0.711-2.078c-0.128,0.643-0.308,1.28-0.54,1.914L186.891,19.885z"
			/>
		<path fill="#FFFFFF" d="M196.967,22.899l0.178,1.087c-0.347,0.073-0.656,0.109-0.93,0.109c-0.446,0-0.793-0.07-1.039-0.212
			s-0.419-0.327-0.52-0.558c-0.101-0.229-0.15-0.714-0.15-1.452v-4.177h-0.902V16.74h0.902v-1.798l1.224-0.738v2.536h1.237v0.957
			h-1.237v4.245c0,0.351,0.021,0.576,0.065,0.677c0.043,0.101,0.113,0.18,0.211,0.239c0.099,0.06,0.238,0.089,0.421,0.089
			C196.564,22.947,196.743,22.932,196.967,22.899z"/>
		<path fill="#FFFFFF" d="M200.857,22.899l0.178,1.087c-0.347,0.073-0.656,0.109-0.93,0.109c-0.446,0-0.793-0.07-1.039-0.212
			s-0.419-0.327-0.52-0.558c-0.101-0.229-0.15-0.714-0.15-1.452v-4.177h-0.902V16.74h0.902v-1.798l1.224-0.738v2.536h1.237v0.957
			h-1.237v4.245c0,0.351,0.021,0.576,0.065,0.677c0.043,0.101,0.113,0.18,0.211,0.239c0.099,0.06,0.238,0.089,0.421,0.089
			C200.453,22.947,200.633,22.932,200.857,22.899z"/>
		<path fill="#FFFFFF" d="M202.046,24v-7.26h1.107v1.101c0.282-0.515,0.544-0.854,0.782-1.019c0.24-0.164,0.503-0.246,0.79-0.246
			c0.415,0,0.836,0.132,1.265,0.396l-0.424,1.142c-0.301-0.178-0.602-0.267-0.902-0.267c-0.269,0-0.511,0.081-0.725,0.242
			c-0.214,0.162-0.367,0.387-0.458,0.674c-0.137,0.438-0.205,0.916-0.205,1.436V24H202.046z"/>
		<path fill="#FFFFFF" d="M206.729,15.394v-1.415h1.23v1.415H206.729z M206.729,24v-7.26h1.23V24H206.729z"/>
		<path fill="#FFFFFF" d="M210.967,24h-1.142V13.979h1.23v3.575c0.52-0.651,1.183-0.978,1.989-0.978c0.446,0,0.869,0.09,1.269,0.27
			c0.398,0.181,0.727,0.434,0.984,0.76c0.257,0.325,0.459,0.719,0.604,1.179s0.219,0.952,0.219,1.477
			c0,1.244-0.308,2.206-0.923,2.885s-1.354,1.019-2.215,1.019c-0.856,0-1.529-0.357-2.017-1.073V24z M210.953,20.315
			c0,0.87,0.118,1.499,0.355,1.887c0.388,0.634,0.911,0.95,1.572,0.95c0.538,0,1.003-0.233,1.395-0.701
			c0.392-0.467,0.588-1.163,0.588-2.088c0-0.948-0.188-1.647-0.563-2.099c-0.377-0.451-0.831-0.677-1.364-0.677
			c-0.538,0-1.003,0.233-1.395,0.701C211.15,18.756,210.953,19.432,210.953,20.315z"/>
		<path fill="#FFFFFF" d="M222.376,24v-1.066c-0.565,0.82-1.333,1.23-2.304,1.23c-0.429,0-0.828-0.082-1.199-0.246
			c-0.372-0.164-0.647-0.37-0.828-0.619c-0.18-0.248-0.306-0.552-0.379-0.912c-0.05-0.241-0.075-0.624-0.075-1.148V16.74h1.23v4.026
			c0,0.643,0.025,1.075,0.075,1.299c0.077,0.323,0.241,0.577,0.492,0.763c0.251,0.184,0.561,0.276,0.93,0.276
			s0.716-0.095,1.039-0.284c0.323-0.188,0.553-0.446,0.688-0.771c0.134-0.326,0.201-0.799,0.201-1.419v-3.89h1.23V24H222.376z"/>
		<path fill="#FFFFFF" d="M228.091,22.899l0.178,1.087c-0.347,0.073-0.656,0.109-0.93,0.109c-0.446,0-0.793-0.07-1.039-0.212
			s-0.419-0.327-0.52-0.558c-0.101-0.229-0.15-0.714-0.15-1.452v-4.177h-0.902V16.74h0.902v-1.798l1.224-0.738v2.536h1.237v0.957
			h-1.237v4.245c0,0.351,0.021,0.576,0.065,0.677c0.043,0.101,0.113,0.18,0.211,0.239c0.099,0.06,0.238,0.089,0.421,0.089
			C227.688,22.947,227.867,22.932,228.091,22.899z"/>
		<path fill="#FFFFFF" d="M229.301,15.394v-1.415h1.23v1.415H229.301z M229.301,24v-7.26h1.23V24H229.301z"/>
		<path fill="#FFFFFF" d="M231.946,20.37c0-1.345,0.374-2.34,1.121-2.987c0.624-0.538,1.386-0.807,2.283-0.807
			c0.998,0,1.813,0.327,2.447,0.98c0.634,0.654,0.95,1.558,0.95,2.711c0,0.935-0.14,1.669-0.421,2.205
			c-0.279,0.535-0.688,0.951-1.223,1.247c-0.536,0.296-1.12,0.444-1.754,0.444c-1.017,0-1.838-0.326-2.465-0.978
			C232.26,22.535,231.946,21.596,231.946,20.37z M233.211,20.37c0,0.93,0.203,1.626,0.608,2.089
			c0.405,0.462,0.916,0.693,1.531,0.693c0.61,0,1.119-0.232,1.524-0.697s0.608-1.174,0.608-2.126c0-0.897-0.204-1.578-0.611-2.04
			c-0.408-0.463-0.915-0.694-1.521-0.694c-0.615,0-1.126,0.23-1.531,0.69S233.211,19.44,233.211,20.37z"/>
		<path fill="#FFFFFF" d="M240.191,24v-7.26h1.107v1.032c0.533-0.798,1.304-1.196,2.311-1.196c0.438,0,0.84,0.078,1.206,0.236
			c0.367,0.156,0.642,0.363,0.824,0.618s0.31,0.559,0.383,0.909c0.046,0.228,0.068,0.627,0.068,1.196V24h-1.23v-4.416
			c0-0.501-0.048-0.876-0.144-1.125c-0.096-0.248-0.266-0.446-0.509-0.594c-0.244-0.148-0.53-0.223-0.858-0.223
			c-0.524,0-0.977,0.166-1.356,0.499c-0.381,0.333-0.571,0.964-0.571,1.894V24H240.191z"/>
		<path fill="#FFFFFF" d="M360.92,24V13.979h1.36l5.264,7.868v-7.868h1.271V24h-1.36l-5.264-7.875V24H360.92z"/>
		<path fill="#FFFFFF" d="M370.429,20.37c0-1.345,0.374-2.34,1.121-2.987c0.624-0.538,1.386-0.807,2.283-0.807
			c0.998,0,1.813,0.327,2.447,0.98c0.634,0.654,0.95,1.558,0.95,2.711c0,0.935-0.14,1.669-0.421,2.205
			c-0.279,0.535-0.688,0.951-1.223,1.247c-0.536,0.296-1.12,0.444-1.754,0.444c-1.017,0-1.838-0.326-2.465-0.978
			C370.742,22.535,370.429,21.596,370.429,20.37z M371.694,20.37c0,0.93,0.203,1.626,0.608,2.089
			c0.405,0.462,0.916,0.693,1.531,0.693c0.61,0,1.119-0.232,1.524-0.697s0.608-1.174,0.608-2.126c0-0.897-0.204-1.578-0.611-2.04
			c-0.408-0.463-0.915-0.694-1.521-0.694c-0.615,0-1.126,0.23-1.531,0.69S371.694,19.44,371.694,20.37z"/>
		<path fill="#FFFFFF" d="M378.673,24v-7.26h1.107v1.032c0.533-0.798,1.304-1.196,2.311-1.196c0.438,0,0.84,0.078,1.206,0.236
			c0.367,0.156,0.642,0.363,0.824,0.618s0.31,0.559,0.383,0.909c0.046,0.228,0.068,0.627,0.068,1.196V24h-1.23v-4.416
			c0-0.501-0.048-0.876-0.144-1.125c-0.096-0.248-0.266-0.446-0.509-0.594c-0.244-0.148-0.53-0.223-0.858-0.223
			c-0.524,0-0.977,0.166-1.356,0.499c-0.381,0.333-0.571,0.964-0.571,1.894V24H378.673z"/>
		<path fill="#FFFFFF" d="M393.767,20.486l1.326,0.335c-0.278,1.089-0.778,1.92-1.5,2.491c-0.723,0.572-1.605,0.858-2.649,0.858
			c-1.08,0-1.958-0.22-2.636-0.659c-0.676-0.44-1.191-1.077-1.545-1.911c-0.353-0.834-0.529-1.729-0.529-2.687
			c0-1.044,0.199-1.954,0.598-2.73c0.399-0.777,0.967-1.367,1.703-1.771c0.735-0.402,1.546-0.604,2.43-0.604
			c1.003,0,1.846,0.255,2.529,0.766s1.16,1.229,1.429,2.153l-1.306,0.308c-0.232-0.729-0.569-1.26-1.012-1.593
			s-0.998-0.499-1.668-0.499c-0.771,0-1.414,0.185-1.932,0.554c-0.517,0.369-0.88,0.865-1.09,1.486
			c-0.21,0.623-0.314,1.264-0.314,1.925c0,0.853,0.124,1.597,0.373,2.231c0.248,0.637,0.634,1.111,1.158,1.426
			s1.092,0.472,1.702,0.472c0.743,0,1.372-0.214,1.887-0.643S393.584,21.329,393.767,20.486z"/>
		<path fill="#FFFFFF" d="M396.111,20.37c0-1.345,0.374-2.34,1.121-2.987c0.624-0.538,1.386-0.807,2.283-0.807
			c0.998,0,1.813,0.327,2.447,0.98c0.634,0.654,0.95,1.558,0.95,2.711c0,0.935-0.14,1.669-0.421,2.205
			c-0.279,0.535-0.688,0.951-1.223,1.247c-0.536,0.296-1.12,0.444-1.754,0.444c-1.017,0-1.838-0.326-2.465-0.978
			C396.425,22.535,396.111,21.596,396.111,20.37z M397.376,20.37c0,0.93,0.203,1.626,0.608,2.089
			c0.405,0.462,0.916,0.693,1.531,0.693c0.61,0,1.119-0.232,1.524-0.697s0.608-1.174,0.608-2.126c0-0.897-0.204-1.578-0.611-2.04
			c-0.408-0.463-0.915-0.694-1.521-0.694c-0.615,0-1.126,0.23-1.531,0.69S397.376,19.44,397.376,20.37z"/>
		<path fill="#FFFFFF" d="M404.356,24v-7.26h1.101v1.019c0.228-0.355,0.531-0.642,0.909-0.858c0.378-0.216,0.809-0.324,1.292-0.324
			c0.538,0,0.979,0.111,1.322,0.335c0.345,0.224,0.587,0.535,0.729,0.937c0.574-0.848,1.321-1.271,2.242-1.271
			c0.72,0,1.273,0.199,1.661,0.598c0.388,0.399,0.581,1.014,0.581,1.843V24h-1.224v-4.573c0-0.492-0.04-0.847-0.12-1.063
			c-0.079-0.216-0.224-0.391-0.434-0.522s-0.456-0.198-0.738-0.198c-0.511,0-0.935,0.17-1.271,0.51
			c-0.337,0.339-0.506,0.883-0.506,1.63V24h-1.23v-4.717c0-0.547-0.101-0.957-0.301-1.23s-0.528-0.41-0.984-0.41
			c-0.347,0-0.666,0.091-0.961,0.273c-0.293,0.183-0.507,0.449-0.639,0.8s-0.198,0.856-0.198,1.518V24H404.356z"/>
		<path fill="#FFFFFF" d="M416.018,24v-7.26h1.101v1.019c0.228-0.355,0.531-0.642,0.909-0.858c0.378-0.216,0.809-0.324,1.292-0.324
			c0.538,0,0.979,0.111,1.322,0.335c0.345,0.224,0.587,0.535,0.729,0.937c0.574-0.848,1.321-1.271,2.242-1.271
			c0.72,0,1.273,0.199,1.661,0.598c0.388,0.399,0.581,1.014,0.581,1.843V24h-1.224v-4.573c0-0.492-0.04-0.847-0.12-1.063
			c-0.079-0.216-0.224-0.391-0.434-0.522s-0.456-0.198-0.738-0.198c-0.511,0-0.935,0.17-1.271,0.51
			c-0.337,0.339-0.506,0.883-0.506,1.63V24h-1.23v-4.717c0-0.547-0.101-0.957-0.301-1.23s-0.528-0.41-0.984-0.41
			c-0.347,0-0.666,0.091-0.961,0.273c-0.293,0.183-0.507,0.449-0.639,0.8s-0.198,0.856-0.198,1.518V24H416.018z"/>
		<path fill="#FFFFFF" d="M432.65,21.662l1.271,0.157c-0.2,0.743-0.572,1.319-1.114,1.729s-1.235,0.615-2.078,0.615
			c-1.062,0-1.903-0.327-2.526-0.98c-0.621-0.654-0.933-1.571-0.933-2.752c0-1.222,0.314-2.169,0.943-2.844s1.444-1.012,2.447-1.012
			c0.971,0,1.764,0.33,2.379,0.991s0.923,1.591,0.923,2.789c0,0.073-0.002,0.183-0.007,0.328h-5.414
			c0.046,0.798,0.271,1.408,0.677,1.832s0.911,0.636,1.518,0.636c0.451,0,0.836-0.118,1.155-0.355S432.463,22.182,432.65,21.662z
			 M428.61,19.673h4.054c-0.055-0.61-0.21-1.068-0.465-1.374c-0.392-0.474-0.9-0.711-1.524-0.711c-0.565,0-1.04,0.189-1.425,0.567
			C428.863,18.533,428.651,19.039,428.61,19.673z"/>
		<path fill="#FFFFFF" d="M435.452,24v-7.26h1.107v1.101c0.282-0.515,0.544-0.854,0.782-1.019c0.24-0.164,0.503-0.246,0.79-0.246
			c0.415,0,0.836,0.132,1.265,0.396l-0.424,1.142c-0.301-0.178-0.602-0.267-0.902-0.267c-0.269,0-0.511,0.081-0.725,0.242
			c-0.214,0.162-0.367,0.387-0.458,0.674c-0.137,0.438-0.205,0.916-0.205,1.436V24H435.452z"/>
		<path fill="#FFFFFF" d="M444.865,21.341l1.21,0.157c-0.132,0.834-0.471,1.486-1.015,1.959c-0.545,0.471-1.214,0.707-2.007,0.707
			c-0.993,0-1.792-0.324-2.396-0.975c-0.604-0.648-0.906-1.58-0.906-2.792c0-0.784,0.13-1.47,0.39-2.058s0.655-1.029,1.187-1.322
			c0.53-0.295,1.108-0.441,1.732-0.441c0.788,0,1.434,0.199,1.935,0.598c0.501,0.399,0.822,0.966,0.964,1.699l-1.196,0.185
			c-0.114-0.487-0.315-0.854-0.604-1.101c-0.29-0.246-0.64-0.369-1.05-0.369c-0.62,0-1.123,0.223-1.511,0.666
			c-0.388,0.445-0.581,1.147-0.581,2.109c0,0.976,0.187,1.684,0.561,2.126s0.861,0.663,1.463,0.663c0.483,0,0.887-0.148,1.21-0.444
			S444.778,21.956,444.865,21.341z"/>
		<path fill="#FFFFFF" d="M447.135,15.394v-1.415h1.23v1.415H447.135z M447.135,24v-7.26h1.23V24H447.135z"/>
		<path fill="#FFFFFF" d="M454.976,23.104c-0.456,0.388-0.895,0.661-1.316,0.82c-0.421,0.159-0.873,0.239-1.356,0.239
			c-0.798,0-1.41-0.195-1.839-0.584c-0.429-0.391-0.643-0.888-0.643-1.494c0-0.355,0.081-0.68,0.242-0.975
			c0.162-0.293,0.374-0.529,0.637-0.707c0.262-0.178,0.557-0.313,0.885-0.403c0.241-0.063,0.606-0.125,1.094-0.185
			c0.993-0.118,1.725-0.26,2.194-0.424c0.005-0.169,0.007-0.275,0.007-0.321c0-0.501-0.116-0.854-0.349-1.06
			c-0.314-0.278-0.781-0.417-1.401-0.417c-0.579,0-1.006,0.102-1.281,0.304c-0.276,0.203-0.48,0.563-0.612,1.077l-1.203-0.164
			c0.109-0.515,0.289-0.931,0.54-1.247c0.251-0.317,0.613-0.561,1.087-0.732c0.474-0.17,1.023-0.256,1.647-0.256
			c0.62,0,1.123,0.073,1.511,0.219s0.672,0.329,0.854,0.551c0.183,0.221,0.31,0.5,0.383,0.837c0.041,0.21,0.062,0.588,0.062,1.135
			v1.641c0,1.144,0.026,1.867,0.079,2.171c0.052,0.303,0.155,0.593,0.311,0.871h-1.285
			C455.094,23.745,455.012,23.446,454.976,23.104z M454.873,20.356c-0.446,0.183-1.116,0.337-2.01,0.465
			c-0.506,0.073-0.863,0.155-1.073,0.246s-0.371,0.225-0.485,0.399c-0.114,0.176-0.171,0.371-0.171,0.585
			c0,0.328,0.124,0.602,0.373,0.82c0.248,0.219,0.611,0.328,1.09,0.328c0.474,0,0.896-0.104,1.265-0.312
			c0.369-0.207,0.641-0.49,0.813-0.851c0.132-0.278,0.198-0.688,0.198-1.23V20.356z"/>
		<path fill="#FFFFFF" d="M457.997,24V13.979h1.23V24H457.997z"/>
		<path fill="#FFFFFF" d="M539.071,24V13.979h1.36l5.264,7.868v-7.868h1.271V24h-1.36l-5.264-7.875V24H539.071z"/>
		<path fill="#FFFFFF" d="M548.58,20.37c0-1.345,0.374-2.34,1.121-2.987c0.624-0.538,1.386-0.807,2.283-0.807
			c0.998,0,1.813,0.327,2.447,0.98c0.634,0.654,0.95,1.558,0.95,2.711c0,0.935-0.14,1.669-0.421,2.205
			c-0.279,0.535-0.688,0.951-1.223,1.247c-0.536,0.296-1.12,0.444-1.754,0.444c-1.017,0-1.838-0.326-2.465-0.978
			C548.894,22.535,548.58,21.596,548.58,20.37z M549.845,20.37c0,0.93,0.203,1.626,0.608,2.089c0.405,0.462,0.916,0.693,1.531,0.693
			c0.61,0,1.119-0.232,1.524-0.697s0.608-1.174,0.608-2.126c0-0.897-0.204-1.578-0.611-2.04c-0.408-0.463-0.915-0.694-1.521-0.694
			c-0.615,0-1.126,0.23-1.531,0.69S549.845,19.44,549.845,20.37z"/>
		<path fill="#FFFFFF" d="M556.982,24V13.979h3.452c0.779,0,1.374,0.048,1.784,0.144c0.574,0.132,1.064,0.371,1.47,0.718
			c0.528,0.446,0.924,1.018,1.187,1.713c0.262,0.694,0.393,1.488,0.393,2.382c0,0.761-0.089,1.436-0.267,2.023
			s-0.405,1.074-0.684,1.46c-0.278,0.385-0.582,0.688-0.913,0.908c-0.33,0.222-0.729,0.389-1.195,0.503
			c-0.468,0.114-1.004,0.171-1.61,0.171H556.982z M558.308,22.817h2.14c0.661,0,1.179-0.062,1.556-0.185
			c0.375-0.123,0.675-0.296,0.898-0.52c0.314-0.314,0.56-0.737,0.734-1.268c0.176-0.531,0.264-1.175,0.264-1.932
			c0-1.048-0.172-1.854-0.516-2.416c-0.345-0.563-0.763-0.94-1.255-1.132c-0.355-0.137-0.928-0.205-1.716-0.205h-2.105V22.817z"/>
		<path fill="#FFFFFF" d="M571.904,21.662l1.271,0.157c-0.2,0.743-0.572,1.319-1.114,1.729s-1.235,0.615-2.078,0.615
			c-1.062,0-1.903-0.327-2.526-0.98c-0.621-0.654-0.933-1.571-0.933-2.752c0-1.222,0.314-2.169,0.943-2.844s1.444-1.012,2.447-1.012
			c0.971,0,1.764,0.33,2.379,0.991s0.923,1.591,0.923,2.789c0,0.073-0.002,0.183-0.007,0.328h-5.414
			c0.046,0.798,0.271,1.408,0.677,1.832s0.911,0.636,1.518,0.636c0.451,0,0.836-0.118,1.155-0.355S571.718,22.182,571.904,21.662z
			 M567.864,19.673h4.054c-0.055-0.61-0.21-1.068-0.465-1.374c-0.392-0.474-0.9-0.711-1.524-0.711c-0.565,0-1.04,0.189-1.425,0.567
			C568.118,18.533,567.905,19.039,567.864,19.673z"/>
		<path fill="#FFFFFF" d="M574.707,24v-7.26h1.107v1.101c0.282-0.515,0.544-0.854,0.782-1.019c0.24-0.164,0.503-0.246,0.79-0.246
			c0.415,0,0.836,0.132,1.265,0.396l-0.424,1.142c-0.301-0.178-0.602-0.267-0.902-0.267c-0.269,0-0.511,0.081-0.725,0.242
			c-0.214,0.162-0.367,0.387-0.458,0.674c-0.137,0.438-0.205,0.916-0.205,1.436V24H574.707z"/>
		<path fill="#FFFFFF" d="M579.39,15.394v-1.415h1.23v1.415H579.39z M579.39,24v-7.26h1.23V24H579.39z"/>
		<path fill="#FFFFFF" d="M584.51,24l-2.762-7.26h1.299l1.559,4.348c0.169,0.47,0.323,0.957,0.465,1.463
			c0.109-0.383,0.262-0.843,0.458-1.381l1.613-4.43h1.265L585.658,24H584.51z"/>
		<path fill="#FFFFFF" d="M589.001,21.833l1.217-0.191c0.068,0.487,0.259,0.861,0.571,1.121c0.312,0.26,0.748,0.39,1.309,0.39
			c0.565,0,0.984-0.115,1.258-0.346c0.273-0.229,0.41-0.5,0.41-0.81c0-0.278-0.121-0.497-0.362-0.656
			c-0.169-0.109-0.588-0.248-1.258-0.417c-0.902-0.228-1.528-0.425-1.876-0.592c-0.35-0.166-0.613-0.396-0.793-0.689
			c-0.181-0.295-0.271-0.619-0.271-0.975c0-0.323,0.074-0.623,0.222-0.898c0.148-0.276,0.351-0.505,0.605-0.688
			c0.191-0.142,0.452-0.261,0.783-0.359c0.33-0.098,0.685-0.146,1.063-0.146c0.569,0,1.07,0.082,1.5,0.246
			c0.432,0.164,0.749,0.387,0.954,0.666c0.205,0.281,0.347,0.655,0.424,1.125l-1.203,0.164c-0.055-0.374-0.213-0.665-0.476-0.875
			c-0.262-0.21-0.632-0.314-1.11-0.314c-0.565,0-0.969,0.094-1.21,0.28s-0.362,0.405-0.362,0.656c0,0.159,0.05,0.303,0.15,0.431
			c0.101,0.132,0.258,0.241,0.472,0.328c0.123,0.046,0.485,0.15,1.087,0.314c0.87,0.232,1.478,0.423,1.821,0.57
			c0.345,0.148,0.614,0.364,0.811,0.646s0.294,0.634,0.294,1.053c0,0.41-0.12,0.797-0.358,1.158
			c-0.24,0.363-0.585,0.643-1.036,0.842c-0.451,0.197-0.962,0.297-1.531,0.297c-0.943,0-1.662-0.196-2.157-0.588
			C589.453,23.185,589.138,22.604,589.001,21.833z"/>
		<path fill="#FFFFFF" d="M195.363,39.486c1.317,0,2.521-0.057,3.609-0.172v1.547c1.317-1.031,2.177-1.861,2.578-2.492
			c0.4,0.573,0.974,1.003,1.719,1.289c-0.631,0.401-1.318,0.846-2.063,1.332c-0.745,0.487-1.433,0.96-2.063,1.418h2.75
			c0.916,0,1.833-0.028,2.75-0.086v1.461c-0.917-0.057-1.834-0.086-2.75-0.086h-4.898c-0.401,0.229-1.117,0.631-2.148,1.203h6.961
			c-0.058,1.031-0.086,2.292-0.086,3.781c0,1.433,0.028,2.635,0.086,3.609h-1.633v-0.688h-9.367v0.945h-1.719
			c0.057-1.089,0.086-2.721,0.086-4.898c-1.089,0.401-2.148,0.773-3.18,1.117c-0.172-0.516-0.459-1.002-0.859-1.461
			c0.859-0.172,2.205-0.602,4.039-1.289V44.9h2.406c1.146-0.458,2.033-0.859,2.664-1.203h-6.188c-0.917,0-1.776,0.029-2.578,0.086
			v-1.461c0.802,0.058,1.689,0.086,2.664,0.086h5.586v-1.547h-3.438c-0.917,0-1.776,0.029-2.578,0.086v-1.633
			c0.802,0.115,1.661,0.172,2.578,0.172h3.438v-1.461h1.719C195.392,38.599,195.363,39.086,195.363,39.486z M202.41,35.533
			c0,0.745,0.028,1.461,0.086,2.148h-14.953c0.057-0.859,0.086-1.633,0.086-2.32s-0.029-1.432-0.086-2.234h14.953
			C202.439,33.93,202.41,34.731,202.41,35.533z M192.098,36.479v-2.063h-2.922v2.063H192.098z M190.809,47.736h9.367v-1.461h-7.992
			c-0.631,0.287-1.089,0.516-1.375,0.688V47.736z M200.176,50.229v-1.289h-9.367v1.289H200.176z M196.481,36.479v-2.063h-2.836
			v2.063H196.481z M196.481,42.408c0.344-0.229,1.146-0.744,2.406-1.547h-3.523v1.547H196.481z M200.863,36.479v-2.063h-2.836v2.063
			H200.863z"/>
		<path fill="#FFFFFF" d="M215.258,34.072c-0.201,0.287-0.444,0.631-0.73,1.031h9.883c-0.688,1.031-1.647,2.335-2.879,3.91
			c-1.232,1.576-2.994,3.08-5.285,4.512h8.68c-0.058,0.859-0.086,1.748-0.086,2.664v3.523c0,0.974,0.028,1.919,0.086,2.836h-1.805
			v-1.891h-9.367v1.977h-1.719c0.057-0.803,0.086-1.719,0.086-2.75v-4.297c-1.891,0.803-3.209,1.318-3.953,1.547
			c-0.229-0.572-0.602-1.117-1.117-1.633c1.489-0.286,3.137-0.802,4.941-1.547c1.805-0.744,3.193-1.489,4.168-2.234
			c-1.261-1.146-2.378-2.033-3.352-2.664c0.4-0.344,0.802-0.773,1.203-1.289c1.833,1.49,3.036,2.464,3.609,2.922
			c1.432-1.088,2.721-2.492,3.867-4.211h-7.82c-1.719,2.063-3.065,3.467-4.039,4.211c-0.344-0.344-0.859-0.716-1.547-1.117
			c1.317-0.859,2.449-1.848,3.395-2.965s1.818-2.535,2.621-4.254c0.744,0.401,1.375,0.688,1.891,0.859
			C215.701,33.5,215.458,33.786,215.258,34.072z M223.121,49.283V44.9h-9.367v4.383H223.121z"/>
		<path fill="#FFFFFF" d="M367.41,36.479v-1.891c0-0.4-0.029-0.945-0.086-1.633h1.891c-0.058,0.573-0.086,1.519-0.086,2.836v12.977
			c0,1.318,0.028,2.463,0.086,3.438h-1.891c0.057-0.975,0.086-1.748,0.086-2.32v-1.977h-3.867c-0.803,0-1.576,0.058-2.32,0.172
			v-1.719c0.744,0.058,1.489,0.086,2.234,0.086h3.953V42.58h-2.578c-0.803,0-1.662,0.029-2.578,0.086v-1.547
			c0.916,0.058,1.805,0.086,2.664,0.086h2.492v-3.266h-3.609c-0.688,0-1.461,0.029-2.32,0.086v-1.633
			c0.859,0.058,1.633,0.086,2.32,0.086H367.41z M380.473,48.08c-0.573-0.114-1.347-0.172-2.32-0.172h-4.297v1.977
			c0,1.088,0.028,1.947,0.086,2.578h-1.805c0.057-0.631,0.086-1.433,0.086-2.406V35.963c0-1.547-0.029-2.606-0.086-3.18h1.891
			c-0.115,0.573-0.172,1.175-0.172,1.805v1.891h4.039c0.859,0,1.633-0.028,2.32-0.086v1.633c-0.688-0.057-1.519-0.086-2.492-0.086
			h-3.867v3.266h3.609c0.802,0,1.489-0.028,2.063-0.086v1.547c-0.516-0.057-1.203-0.086-2.063-0.086h-3.609v3.867h4.297
			c0.859,0,1.633-0.028,2.32-0.086V48.08z"/>
		<path fill="#FFFFFF" d="M394.223,34.846h4.898c1.146,0,2.291-0.028,3.438-0.086v1.547c-1.146-0.057-2.292-0.086-3.438-0.086
			h-9.883c1.088,1.146,1.747,1.891,1.977,2.234c-0.401,0.172-0.831,0.43-1.289,0.773h4.641c0.344-0.916,0.688-1.891,1.031-2.922
			c0.572,0.229,1.231,0.43,1.977,0.602c-0.401,0.516-0.859,1.289-1.375,2.32h4.813c-0.058,0.688-0.086,1.633-0.086,2.836v8.508
			c0,0.688-0.315,1.174-0.945,1.461c-0.631,0.286-1.49,0.516-2.578,0.688c-0.058-0.688-0.287-1.318-0.688-1.891
			c1.146,0.057,1.861,0,2.148-0.172c0.286-0.172,0.43-0.458,0.43-0.859v-9.367h-12.547v12.031h-1.719
			c0.057-1.49,0.086-2.549,0.086-3.18v-7.391c0-0.572-0.029-1.461-0.086-2.664h4.727c-0.401-0.688-1.061-1.403-1.977-2.148
			c0.458-0.229,0.888-0.516,1.289-0.859h-1.977c-1.318,0-2.464,0.029-3.438,0.086V34.76c0.974,0.058,2.091,0.086,3.352,0.086h5.328
			c-0.172-0.572-0.545-1.174-1.117-1.805c0.572-0.172,1.117-0.372,1.633-0.602C393.592,33.586,394.051,34.388,394.223,34.846z
			 M392.59,42.322c-0.573,0.287-1.404,1.061-2.492,2.32h6.531c-0.058,0.745-0.086,1.547-0.086,2.406s0.028,1.719,0.086,2.578h-6.703
			c0.057-0.859,0.086-1.689,0.086-2.492c0-0.859-0.029-1.633-0.086-2.32c-0.401,0.344-0.803,0.659-1.203,0.945
			c-0.287-0.4-0.717-0.716-1.289-0.945c1.775-1.375,2.95-2.549,3.523-3.523C391.529,41.692,392.074,42.036,392.59,42.322z
			 M394.91,48.338v-2.406h-3.352v2.406H394.91z M398.863,44.041c-0.516,0.287-0.945,0.659-1.289,1.117
			c-0.573-0.688-1.776-1.633-3.609-2.836c0.4-0.286,0.744-0.658,1.031-1.117C396.6,42.236,397.889,43.182,398.863,44.041z"/>
		<path fill="#FFFFFF" d="M406.813,48.338c0.372-1.088,0.602-2.177,0.688-3.266c0.086-1.088,0.129-2.922,0.129-5.5
			s-0.029-4.641-0.086-6.188h15.383c-0.058,1.662-0.086,3.151-0.086,4.469v11.258c0,1.203-0.344,1.947-1.031,2.234
			c-0.688,0.286-1.49,0.486-2.406,0.602c-0.115-0.859-0.315-1.519-0.602-1.977c1.146,0.058,1.818,0.015,2.02-0.129
			c0.2-0.143,0.301-0.415,0.301-0.816v-4.297h-5.242v3.352c0,1.261,0.028,2.406,0.086,3.438h-1.891
			c0.057-0.975,0.086-2.091,0.086-3.352v-3.438h-4.898c-0.229,2.464-1.003,4.956-2.32,7.477c-0.631-0.401-1.203-0.659-1.719-0.773
			C405.91,50.457,406.44,49.427,406.813,48.338z M414.16,38.455V34.76h-4.898v3.695H414.16z M414.16,43.354v-3.609h-4.898v3.609
			H414.16z M421.121,38.455V34.76h-5.242v3.695H421.121z M421.121,43.354v-3.609h-5.242v3.609H421.121z"/>
		<path fill="#FFFFFF" d="M542.035,38.541l-1.375,1.547c-0.459,0.516-1.146,1.175-2.063,1.977c-0.401-0.344-0.889-0.716-1.461-1.117
			c1.088-0.572,2.033-1.303,2.836-2.191c0.802-0.888,1.346-1.618,1.633-2.191h-0.773c-0.917,0-1.891,0.029-2.922,0.086v-1.461
			c1.031,0.058,2.005,0.086,2.922,0.086h1.203c0-1.088-0.029-2.005-0.086-2.75h1.719c-0.058,0.745-0.086,1.662-0.086,2.75
			c1.031,0,2.033-0.028,3.008-0.086v1.461c-0.975-0.057-1.977-0.086-3.008-0.086v3.953c0,0.459,0.028,0.945,0.086,1.461h-1.719
			c0.057-0.286,0.086-0.773,0.086-1.461V38.541z M539.801,49.498c0.859-0.486,1.805-1.16,2.836-2.02
			c0.286,0.401,0.658,0.889,1.117,1.461c-0.631,0.344-1.318,0.745-2.063,1.203c-0.745,0.458-1.776,1.088-3.094,1.891
			c-0.287-0.516-0.631-1.003-1.031-1.461C538.196,50.344,538.942,49.985,539.801,49.498z M553.981,45.502
			c0.63,0,1.289-0.028,1.977-0.086v1.461c-0.688-0.057-1.347-0.086-1.977-0.086h-5.844v3.781c0,0.859-0.358,1.403-1.074,1.633
			c-0.717,0.229-1.504,0.372-2.363,0.43c-0.172-0.631-0.401-1.232-0.688-1.805c1.203,0.057,1.919,0.043,2.148-0.043
			c0.229-0.086,0.344-0.387,0.344-0.902v-3.094h-6.789c-0.516,0-1.061,0.058-1.633,0.172v-1.547
			c0.572,0.058,1.117,0.086,1.633,0.086H553.981z M551.746,42.58c0.516,0,1.203-0.028,2.063-0.086v1.461
			c-0.975-0.057-1.662-0.086-2.063-0.086h-9.453c-0.401,0-1.031,0.029-1.891,0.086v-1.461c0.688,0.058,1.317,0.086,1.891,0.086
			H551.746z M546.762,39.057c-0.287,0.344-0.659,0.717-1.117,1.117c-0.631-0.744-1.261-1.375-1.891-1.891
			c0.4-0.4,0.688-0.773,0.859-1.117C545.358,37.797,546.074,38.427,546.762,39.057z M550.371,35.361
			c0-1.203-0.029-2.091-0.086-2.664h1.719c-0.058,0.688-0.086,1.576-0.086,2.664h1.719c0.802,0,1.633-0.028,2.492-0.086v1.461
			c-0.803-0.057-1.604-0.086-2.406-0.086h-1.203c1.375,1.776,2.864,3.065,4.469,3.867c-0.688,0.459-1.146,0.889-1.375,1.289
			c-0.803-0.63-1.547-1.317-2.234-2.063c-0.688-0.744-1.175-1.289-1.461-1.633v2.063c0,0.459,0.028,1.089,0.086,1.891h-1.719
			c0.057-0.63,0.086-1.203,0.086-1.719v-2.148c-0.459,0.631-0.874,1.175-1.246,1.633c-0.373,0.459-1.189,1.203-2.449,2.234
			c-0.344-0.4-0.803-0.744-1.375-1.031c1.146-0.688,2.076-1.432,2.793-2.234c0.716-0.802,1.217-1.518,1.504-2.148h-0.859
			c-0.459,0-0.975,0.029-1.547,0.086v-1.461c0.572,0.058,1.26,0.086,2.063,0.086H550.371z M553.293,48.682
			c0.802,0.401,1.747,0.975,2.836,1.719c-0.459,0.516-0.803,1.002-1.031,1.461c-0.975-0.803-2.607-1.775-4.898-2.922
			c0.4-0.516,0.716-0.974,0.945-1.375C551.775,47.908,552.49,48.281,553.293,48.682z"/>
		<path fill="#FFFFFF" d="M564.379,40.689v8.852h4.469V36.307c0-1.088-0.029-2.177-0.086-3.266h1.891
			c-0.058,1.031-0.086,2.12-0.086,3.266v2.922h3.438c0.974,0,2.063-0.028,3.266-0.086v1.719c-1.203-0.057-2.292-0.086-3.266-0.086
			h-3.438v8.766h4.727c1.146,0,2.32-0.028,3.523-0.086v1.719c-1.203-0.058-2.378-0.086-3.523-0.086h-12.547
			c-1.203,0-2.406,0.028-3.609,0.086v-1.719c0.916,0.058,2.063,0.086,3.438,0.086v-8.852c0-0.974-0.029-1.977-0.086-3.008h1.977
			C564.407,38.713,564.379,39.716,564.379,40.689z"/>
		<path fill="#FFFFFF" d="M585.348,40.947c-0.344,0.459-0.659,0.945-0.945,1.461c-0.516-0.516-1.662-1.346-3.438-2.492
			c0.286-0.344,0.572-0.773,0.859-1.289C583.543,39.658,584.717,40.432,585.348,40.947z M584.617,48.424
			c-0.373,0.631-0.73,1.246-1.074,1.848s-0.717,1.274-1.117,2.02c-0.459-0.459-0.945-0.889-1.461-1.289
			c0.744-0.859,1.461-1.904,2.148-3.137c0.688-1.231,1.26-2.334,1.719-3.309c0.4,0.459,0.83,0.889,1.289,1.289
			C585.49,46.935,584.989,47.794,584.617,48.424z M586.035,35.361c-0.401,0.344-0.717,0.803-0.945,1.375
			c-1.662-1.317-2.808-2.091-3.438-2.32c0.4-0.516,0.688-0.945,0.859-1.289C584.231,34.158,585.404,34.903,586.035,35.361z
			 M590.375,50.959c-0.945,0.658-1.905,1.274-2.879,1.848c-0.344-0.459-0.717-0.859-1.117-1.203c0.802-0.344,1.59-0.76,2.363-1.246
			s1.532-1.103,2.277-1.848c0.4,0.401,0.859,0.773,1.375,1.117C591.993,49.856,591.32,50.301,590.375,50.959z M594.715,35.018h6.273
			c-0.058,0.688-0.086,1.318-0.086,1.891c0,0.516,0.028,1.117,0.086,1.805h-1.719v-2.492h-10.914v2.32h-1.719
			c0.057-0.688,0.086-1.289,0.086-1.805s-0.029-1.088-0.086-1.719h6.188c-0.229-0.688-0.631-1.403-1.203-2.148
			c0.63-0.172,1.174-0.372,1.633-0.602C593.884,33.299,594.371,34.216,594.715,35.018z M595.403,38.111
			c0.802,0,1.689-0.028,2.664-0.086V39.4c-0.917-0.057-1.805-0.086-2.664-0.086h-1.031v1.805h5.156
			c-0.058,0.745-0.086,1.547-0.086,2.406v2.492c0,0.688,0.028,1.433,0.086,2.234h-3.18c0.63,0.344,1.346,0.773,2.148,1.289
			c0.802,0.516,1.633,1.088,2.492,1.719c-0.401,0.458-0.745,0.916-1.031,1.375c-0.859-0.688-1.69-1.304-2.492-1.848
			c-0.803-0.544-1.547-1.017-2.234-1.418c0.4-0.458,0.688-0.83,0.859-1.117h-8.164c0.057-0.802,0.086-1.547,0.086-2.234v-2.492
			c0-0.859-0.029-1.661-0.086-2.406h4.984v-1.805h-0.945c-0.803,0-1.69,0.029-2.664,0.086v-1.375
			c1.031,0.058,1.891,0.086,2.578,0.086H595.403z M592.91,44.041v-1.719h-3.438v1.719H592.91z M592.91,47.049V45.33h-3.438v1.719
			H592.91z M597.895,44.041v-1.719h-3.523v1.719H597.895z M597.895,47.049V45.33h-3.523v1.719H597.895z"/>
		<path fill="#FFFFFF" d="M606.875,36.092c-0.545,0.945-1.16,2.02-1.848,3.223c0.4,0,1.346-0.028,2.836-0.086
			c0.63-0.974,1.117-1.891,1.461-2.75c0.688,0.516,1.289,0.917,1.805,1.203c-0.459,0.516-1.074,1.347-1.848,2.492
			c-0.773,1.146-1.819,2.578-3.137,4.297c0.458-0.057,1.775-0.229,3.953-0.516c-0.115,0.573-0.172,1.117-0.172,1.633
			c-0.859,0-1.805,0.086-2.836,0.258s-2.092,0.373-3.18,0.602c-0.172-0.688-0.373-1.317-0.602-1.891
			c0.458-0.114,1.031-0.544,1.719-1.289c0.688-0.744,1.375-1.661,2.063-2.75c-0.459,0-1.074,0.043-1.848,0.129
			s-1.418,0.215-1.934,0.387c-0.115-0.516-0.287-1.088-0.516-1.719c0.516-0.4,1.117-1.203,1.805-2.406s1.289-2.492,1.805-3.867
			c0.4,0.229,1.06,0.516,1.977,0.859C607.92,34.416,607.419,35.146,606.875,36.092z M609.754,49.197
			c-0.688,0.172-1.647,0.444-2.879,0.816c-1.232,0.373-2.307,0.73-3.223,1.074c-0.229-0.802-0.487-1.461-0.773-1.977
			c1.088-0.172,2.162-0.387,3.223-0.645c1.06-0.258,2.363-0.587,3.91-0.988C609.84,48.166,609.754,48.739,609.754,49.197z
			 M621.528,33.729c-0.688,1.375-1.289,2.464-1.805,3.266c-0.516,0.803-1.175,1.633-1.977,2.492c0.802,0.344,1.59,0.602,2.363,0.773
			s1.848,0.315,3.223,0.43c-0.516,0.631-0.859,1.261-1.031,1.891c-1.375-0.286-2.578-0.63-3.609-1.031
			c-1.031-0.4-1.805-0.773-2.32-1.117l-2.578,1.289c-0.688,0.344-1.633,0.688-2.836,1.031c-0.287-0.516-0.688-1.117-1.203-1.805
			c1.088-0.114,2.005-0.271,2.75-0.473c0.744-0.2,1.547-0.559,2.406-1.074c-1.031-1.031-1.891-2.435-2.578-4.211h-0.773v-1.547
			c0.859,0.058,1.689,0.086,2.492,0.086H621.528z M615.684,43.869c0-0.572-0.029-1.117-0.086-1.633h1.891
			c-0.058,0.573-0.086,1.117-0.086,1.633h1.117c0.859,0,1.775-0.028,2.75-0.086v1.547c-0.975-0.057-1.862-0.086-2.664-0.086h-1.203
			v2.32h1.891c1.088,0,2.148-0.028,3.18-0.086v1.719c-1.031-0.057-2.063-0.086-3.094-0.086h-1.977V50.4
			c0,0.859,0.028,1.633,0.086,2.32h-1.891c0.057-0.688,0.086-1.461,0.086-2.32v-1.289h-1.289c-1.146,0-2.292,0.029-3.438,0.086
			v-1.719c1.146,0.058,2.291,0.086,3.438,0.086h1.289v-2.32h-1.203c-0.859,0-1.748,0.029-2.664,0.086v-1.547
			c0.916,0.058,1.805,0.086,2.664,0.086H615.684z M613.965,35.189c0.802,1.604,1.633,2.693,2.492,3.266
			c0.4-0.344,0.802-0.787,1.203-1.332c0.4-0.544,0.802-1.188,1.203-1.934H613.965z"/>
	</g>
</g>
<g id="图层_2">
	<g>
		<path fill="#FFFFFF" d="M-85.892,39.56h-3.823v-2.285c-0.635,0.889-1.384,1.551-2.249,1.984c-0.864,0.435-1.736,0.652-2.615,0.652
			c-1.787,0-3.318-0.72-4.592-2.16s-1.912-3.45-1.912-6.028c0-2.637,0.62-4.641,1.86-6.013s2.808-2.058,4.702-2.058
			c1.738,0,3.242,0.723,4.512,2.168v-7.734h4.116V39.56z M-96.879,31.444c0,1.66,0.229,2.861,0.688,3.604
			c0.664,1.074,1.592,1.611,2.783,1.611c0.947,0,1.753-0.402,2.417-1.208s0.996-2.01,0.996-3.611c0-1.787-0.322-3.074-0.967-3.86
			s-1.47-1.179-2.476-1.179c-0.977,0-1.794,0.388-2.454,1.165S-96.879,29.901-96.879,31.444z"/>
	</g>
	<g>
		<path fill="#85C155" d="M-17.808,18.422c-0.095,1.688-0.141,3.329-0.141,4.922v5.203c0,1.969,0.046,3.892,0.141,5.766h-3.094
			v-2.109h-18.563v9.422c-0.189,2.25,0.984,3.329,3.516,3.234h13.922c1.593,0.095,2.694-0.141,3.305-0.703
			c0.608-0.563,1.055-2.155,1.336-4.781c1.03,0.657,2.202,1.174,3.516,1.547c-0.563,2.531-1.195,4.24-1.898,5.133
			c-0.703,0.89-1.712,1.382-3.023,1.477h-18.844c-3.375,0.092-4.97-1.36-4.781-4.359V31.078c0-0.936-0.048-2.672-0.141-5.203h3.375
			c-0.095,1.314-0.141,2.626-0.141,3.938h18.422v-8.859h-15.609c-2.158,0-4.595,0.048-7.313,0.141v-2.813
			c2.718,0.095,5.108,0.141,7.172,0.141H-17.808z"/>
		<path fill="#85C155" d="M6.942,20.461c-0.281,1.079-0.657,2.556-1.125,4.43h11.25c0.936,0,2.342-0.046,4.219-0.141v2.672
			c-1.876-0.092-3.283-0.141-4.219-0.141H5.254c-0.563,1.406-1.173,2.813-1.828,4.219h14.906c-1.782,4.313-4.267,7.924-7.453,10.828
			c2.531,1.782,6.233,2.953,11.109,3.516c-0.657,0.749-1.22,1.688-1.688,2.813c-1.876-0.376-3.797-0.914-5.766-1.617
			s-3.892-1.712-5.766-3.023c-1.501,0.938-3.329,1.85-5.484,2.742c-2.158,0.89-4.359,1.617-6.609,2.18
			c-0.189-0.938-0.657-1.828-1.406-2.672c2.061-0.281,4.124-0.773,6.188-1.477c2.061-0.703,3.889-1.568,5.484-2.602
			c-1.595-1.593-3.375-3.889-5.344-6.891c-1.033,1.688-2.345,3.329-3.938,4.922c-1.595,1.596-3.329,3.048-5.203,4.359
			c-0.376-0.654-1.125-1.357-2.25-2.109c1.406-0.749,2.788-1.733,4.148-2.953c1.358-1.217,2.788-2.834,4.289-4.852
			c1.499-2.015,2.764-4.476,3.797-7.383c-2.439,0-4.313,0.048-5.625,0.141c-1.314,0.095-2.298,0.281-2.953,0.563
			c-0.281-0.844-0.657-1.733-1.125-2.672c0.936-0.187,1.617-0.89,2.039-2.109c0.422-1.217,0.866-3.094,1.336-5.625
			c0.749,0.376,1.78,0.751,3.094,1.125c-0.47,0.938-0.892,1.898-1.266,2.883c-0.376,0.984-0.798,2.087-1.266,3.305h6.469
			c0.749-2.999,1.312-5.858,1.688-8.578c1.03,0.563,2.109,0.892,3.234,0.984C7.596,18.33,7.223,19.384,6.942,20.461z M9.051,40.781
			c2.061-1.688,3.889-4.029,5.484-7.031H3.567C4.878,36.095,6.706,38.439,9.051,40.781z M18.051,21.938
			c-0.657,0.376-1.455,0.984-2.391,1.828c-1.501-2.155-2.953-3.983-4.359-5.484c0.655-0.468,1.312-1.077,1.969-1.828
			C14.862,18.235,16.456,20.063,18.051,21.938z"/>
		<path fill="#85C155" d="M37.879,21.234c1.03-2.061,1.78-4.078,2.25-6.047c1.312,0.47,2.483,0.892,3.516,1.266
			c-0.47,0.376-1.314,1.969-2.531,4.781H51.52c2.813,0,5.108-0.046,6.891-0.141v2.531H39.848c-1.501,2.626-2.907,4.735-4.219,6.328
			h7.313c0-2.061-0.048-3.749-0.141-5.063h2.953c-0.095,1.314-0.141,3.001-0.141,5.063h9.844c-0.095,1.688-0.141,3.375-0.141,5.063
			v5.766c0,1.782-0.492,2.907-1.477,3.375c-0.984,0.471-2.415,0.798-4.289,0.984c-0.189-1.312-0.611-2.391-1.266-3.234
			c2.155,0,3.445-0.141,3.867-0.422s0.584-1.03,0.492-2.25v-6.891h-7.031v9.563c0,1.969,0.046,4.124,0.141,6.469h-2.953
			c0.092-2.345,0.141-4.5,0.141-6.469v-9.563h-6.609V45H33.52c0.092-1.969,0.141-3.889,0.141-5.766v-6.75
			c-1.22,1.406-3.048,3.188-5.484,5.344c-0.657-0.749-1.501-1.452-2.531-2.109c2.061-1.406,4.054-3.115,5.977-5.133
			c1.92-2.015,3.586-4.335,4.992-6.961h-3.375c-2.345,0-4.5,0.048-6.469,0.141v-2.672c1.969,0.095,4.124,0.141,6.469,0.141H37.879z"
			/>
	</g>
</g>
</svg>
